<?xml version="1.0" encoding="utf-8" standalone="no"?>
<!DOCTYPE svg PUBLIC "-//W3C//DTD SVG 1.1//EN"
  "http://www.w3.org/Graphics/SVG/1.1/DTD/svg11.dtd">
<svg xmlns:xlink="http://www.w3.org/1999/xlink" width="855.579375pt" height="566.726625pt" viewBox="0 0 855.579375 566.726625" xmlns="http://www.w3.org/2000/svg" version="1.1">
 <metadata>
  <rdf:RDF xmlns:dc="http://purl.org/dc/elements/1.1/" xmlns:cc="http://creativecommons.org/ns#" xmlns:rdf="http://www.w3.org/1999/02/22-rdf-syntax-ns#">
   <cc:Work>
    <dc:type rdf:resource="http://purl.org/dc/dcmitype/StillImage"/>
    <dc:date>2025-07-24T13:00:26.386876</dc:date>
    <dc:format>image/svg+xml</dc:format>
    <dc:creator>
     <cc:Agent>
      <dc:title>Matplotlib v3.10.3, https://matplotlib.org/</dc:title>
     </cc:Agent>
    </dc:creator>
   </cc:Work>
  </rdf:RDF>
 </metadata>
 <defs>
  <style type="text/css">*{stroke-linejoin: round; stroke-linecap: butt}</style>
 </defs>
 <g id="figure_1">
  <g id="patch_1">
   <path d="M 0 566.726625 
L 855.579375 566.726625 
L 855.579375 0 
L 0 0 
z
" style="fill: #ffffff"/>
  </g>
  <g id="axes_1">
   <g id="patch_2">
    <path d="M 52.079375 527.23475 
L 848.379375 527.23475 
L 848.379375 39.51475 
L 52.079375 39.51475 
z
" style="fill: #ffffff"/>
   </g>
   <g id="line2d_1">
    <path d="M 110.155994 257.524221 
L 162.549413 81.389396 
L 193.510655 61.982184 
" clip-path="url(#p45540a2422)" style="fill: none; stroke: #d62728; stroke-opacity: 0.6; stroke-width: 1.5; stroke-linecap: square"/>
   </g>
   <g id="line2d_2">
    <path d="M 108.836824 122.192117 
L 112.670569 81.502655 
L 117.865035 50.250704 
L 131.939733 44.371868 
L 140.163782 44.403097 
L 193.163597 46.504655 
" clip-path="url(#p45540a2422)" style="fill: none; stroke: #2ca02c; stroke-opacity: 0.6; stroke-width: 1.5; stroke-linecap: square"/>
   </g>
   <g id="line2d_3">
    <path d="M 105.149901 126.214766 
L 121.481387 68.047819 
L 155.456986 45.92555 
L 160.128606 48.316229 
" clip-path="url(#p45540a2422)" style="fill: none; stroke: #ff7f0e; stroke-opacity: 0.6; stroke-width: 1.5; stroke-linecap: square"/>
   </g>
   <g id="line2d_4">
    <path d="M 171.36055 170.907593 
L 199.389894 86.30085 
" clip-path="url(#p45540a2422)" style="fill: none; stroke: #d62728; stroke-opacity: 0.6; stroke-width: 1.5; stroke-linecap: square"/>
   </g>
   <g id="line2d_5">
    <path d="M 106.629933 364.039667 
L 117.351942 75.281738 
L 138.593266 47.524565 
" clip-path="url(#p45540a2422)" style="fill: none; stroke: #2ca02c; stroke-opacity: 0.6; stroke-width: 1.5; stroke-linecap: square"/>
   </g>
   <g id="line2d_6">
    <path d="M 100.626527 411.863028 
L 111.394924 237.613172 
L 154.388031 44.59263 
L 154.831132 49.097243 
" clip-path="url(#p45540a2422)" style="fill: none; stroke: #ff7f0e; stroke-opacity: 0.6; stroke-width: 1.5; stroke-linecap: square"/>
   </g>
   <g id="line2d_7">
    <path d="M 149.546983 231.89854 
L 177.228564 108.382824 
" clip-path="url(#p45540a2422)" style="fill: none; stroke: #d62728; stroke-opacity: 0.6; stroke-width: 1.5; stroke-linecap: square"/>
   </g>
   <g id="line2d_8">
    <path d="M 104.373225 366.428187 
L 111.015246 196.53457 
" clip-path="url(#p45540a2422)" style="fill: none; stroke: #2ca02c; stroke-opacity: 0.6; stroke-width: 1.5; stroke-linecap: square"/>
   </g>
   <g id="line2d_9">
    <path d="M 107.09707 304.971826 
L 149.7727 48.130725 
L 159.889501 45.594119 
" clip-path="url(#p45540a2422)" style="fill: none; stroke: #ff7f0e; stroke-opacity: 0.6; stroke-width: 1.5; stroke-linecap: square"/>
   </g>
   <g id="matplotlib.axis_1">
    <g id="xtick_1">
     <g id="line2d_10">
      <path d="M 88.27483 527.23475 
L 88.27483 39.51475 
" clip-path="url(#p45540a2422)" style="fill: none; stroke: #b0b0b0; stroke-opacity: 0.3; stroke-width: 0.8; stroke-linecap: square"/>
     </g>
     <g id="line2d_11">
      <defs>
       <path id="m43f9af34d9" d="M 0 0 
L 0 3.5 
" style="stroke: #000000; stroke-width: 0.8"/>
      </defs>
      <g>
       <use xlink:href="#m43f9af34d9" x="88.27483" y="527.23475" style="stroke: #000000; stroke-width: 0.8"/>
      </g>
     </g>
     <g id="text_1">
      <!-- 0 -->
      <g transform="translate(85.09358 541.833187) scale(0.1 -0.1)">
       <defs>
        <path id="DejaVuSans-30" d="M 2034 4250 
Q 1547 4250 1301 3770 
Q 1056 3291 1056 2328 
Q 1056 1369 1301 889 
Q 1547 409 2034 409 
Q 2525 409 2770 889 
Q 3016 1369 3016 2328 
Q 3016 3291 2770 3770 
Q 2525 4250 2034 4250 
z
M 2034 4750 
Q 2819 4750 3233 4129 
Q 3647 3509 3647 2328 
Q 3647 1150 3233 529 
Q 2819 -91 2034 -91 
Q 1250 -91 836 529 
Q 422 1150 422 2328 
Q 422 3509 836 4129 
Q 1250 4750 2034 4750 
z
" transform="scale(0.015625)"/>
       </defs>
       <use xlink:href="#DejaVuSans-30"/>
      </g>
     </g>
    </g>
    <g id="xtick_2">
     <g id="line2d_12">
      <path d="M 192.069551 527.23475 
L 192.069551 39.51475 
" clip-path="url(#p45540a2422)" style="fill: none; stroke: #b0b0b0; stroke-opacity: 0.3; stroke-width: 0.8; stroke-linecap: square"/>
     </g>
     <g id="line2d_13">
      <g>
       <use xlink:href="#m43f9af34d9" x="192.069551" y="527.23475" style="stroke: #000000; stroke-width: 0.8"/>
      </g>
     </g>
     <g id="text_2">
      <!-- 100 -->
      <g transform="translate(182.525801 541.833187) scale(0.1 -0.1)">
       <defs>
        <path id="DejaVuSans-31" d="M 794 531 
L 1825 531 
L 1825 4091 
L 703 3866 
L 703 4441 
L 1819 4666 
L 2450 4666 
L 2450 531 
L 3481 531 
L 3481 0 
L 794 0 
L 794 531 
z
" transform="scale(0.015625)"/>
       </defs>
       <use xlink:href="#DejaVuSans-31"/>
       <use xlink:href="#DejaVuSans-30" transform="translate(63.623047 0)"/>
       <use xlink:href="#DejaVuSans-30" transform="translate(127.246094 0)"/>
      </g>
     </g>
    </g>
    <g id="xtick_3">
     <g id="line2d_14">
      <path d="M 295.864272 527.23475 
L 295.864272 39.51475 
" clip-path="url(#p45540a2422)" style="fill: none; stroke: #b0b0b0; stroke-opacity: 0.3; stroke-width: 0.8; stroke-linecap: square"/>
     </g>
     <g id="line2d_15">
      <g>
       <use xlink:href="#m43f9af34d9" x="295.864272" y="527.23475" style="stroke: #000000; stroke-width: 0.8"/>
      </g>
     </g>
     <g id="text_3">
      <!-- 200 -->
      <g transform="translate(286.320522 541.833187) scale(0.1 -0.1)">
       <defs>
        <path id="DejaVuSans-32" d="M 1228 531 
L 3431 531 
L 3431 0 
L 469 0 
L 469 531 
Q 828 903 1448 1529 
Q 2069 2156 2228 2338 
Q 2531 2678 2651 2914 
Q 2772 3150 2772 3378 
Q 2772 3750 2511 3984 
Q 2250 4219 1831 4219 
Q 1534 4219 1204 4116 
Q 875 4013 500 3803 
L 500 4441 
Q 881 4594 1212 4672 
Q 1544 4750 1819 4750 
Q 2544 4750 2975 4387 
Q 3406 4025 3406 3419 
Q 3406 3131 3298 2873 
Q 3191 2616 2906 2266 
Q 2828 2175 2409 1742 
Q 1991 1309 1228 531 
z
" transform="scale(0.015625)"/>
       </defs>
       <use xlink:href="#DejaVuSans-32"/>
       <use xlink:href="#DejaVuSans-30" transform="translate(63.623047 0)"/>
       <use xlink:href="#DejaVuSans-30" transform="translate(127.246094 0)"/>
      </g>
     </g>
    </g>
    <g id="xtick_4">
     <g id="line2d_16">
      <path d="M 399.658993 527.23475 
L 399.658993 39.51475 
" clip-path="url(#p45540a2422)" style="fill: none; stroke: #b0b0b0; stroke-opacity: 0.3; stroke-width: 0.8; stroke-linecap: square"/>
     </g>
     <g id="line2d_17">
      <g>
       <use xlink:href="#m43f9af34d9" x="399.658993" y="527.23475" style="stroke: #000000; stroke-width: 0.8"/>
      </g>
     </g>
     <g id="text_4">
      <!-- 300 -->
      <g transform="translate(390.115243 541.833187) scale(0.1 -0.1)">
       <defs>
        <path id="DejaVuSans-33" d="M 2597 2516 
Q 3050 2419 3304 2112 
Q 3559 1806 3559 1356 
Q 3559 666 3084 287 
Q 2609 -91 1734 -91 
Q 1441 -91 1130 -33 
Q 819 25 488 141 
L 488 750 
Q 750 597 1062 519 
Q 1375 441 1716 441 
Q 2309 441 2620 675 
Q 2931 909 2931 1356 
Q 2931 1769 2642 2001 
Q 2353 2234 1838 2234 
L 1294 2234 
L 1294 2753 
L 1863 2753 
Q 2328 2753 2575 2939 
Q 2822 3125 2822 3475 
Q 2822 3834 2567 4026 
Q 2313 4219 1838 4219 
Q 1578 4219 1281 4162 
Q 984 4106 628 3988 
L 628 4550 
Q 988 4650 1302 4700 
Q 1616 4750 1894 4750 
Q 2613 4750 3031 4423 
Q 3450 4097 3450 3541 
Q 3450 3153 3228 2886 
Q 3006 2619 2597 2516 
z
" transform="scale(0.015625)"/>
       </defs>
       <use xlink:href="#DejaVuSans-33"/>
       <use xlink:href="#DejaVuSans-30" transform="translate(63.623047 0)"/>
       <use xlink:href="#DejaVuSans-30" transform="translate(127.246094 0)"/>
      </g>
     </g>
    </g>
    <g id="xtick_5">
     <g id="line2d_18">
      <path d="M 503.453714 527.23475 
L 503.453714 39.51475 
" clip-path="url(#p45540a2422)" style="fill: none; stroke: #b0b0b0; stroke-opacity: 0.3; stroke-width: 0.8; stroke-linecap: square"/>
     </g>
     <g id="line2d_19">
      <g>
       <use xlink:href="#m43f9af34d9" x="503.453714" y="527.23475" style="stroke: #000000; stroke-width: 0.8"/>
      </g>
     </g>
     <g id="text_5">
      <!-- 400 -->
      <g transform="translate(493.909964 541.833187) scale(0.1 -0.1)">
       <defs>
        <path id="DejaVuSans-34" d="M 2419 4116 
L 825 1625 
L 2419 1625 
L 2419 4116 
z
M 2253 4666 
L 3047 4666 
L 3047 1625 
L 3713 1625 
L 3713 1100 
L 3047 1100 
L 3047 0 
L 2419 0 
L 2419 1100 
L 313 1100 
L 313 1709 
L 2253 4666 
z
" transform="scale(0.015625)"/>
       </defs>
       <use xlink:href="#DejaVuSans-34"/>
       <use xlink:href="#DejaVuSans-30" transform="translate(63.623047 0)"/>
       <use xlink:href="#DejaVuSans-30" transform="translate(127.246094 0)"/>
      </g>
     </g>
    </g>
    <g id="xtick_6">
     <g id="line2d_20">
      <path d="M 607.248435 527.23475 
L 607.248435 39.51475 
" clip-path="url(#p45540a2422)" style="fill: none; stroke: #b0b0b0; stroke-opacity: 0.3; stroke-width: 0.8; stroke-linecap: square"/>
     </g>
     <g id="line2d_21">
      <g>
       <use xlink:href="#m43f9af34d9" x="607.248435" y="527.23475" style="stroke: #000000; stroke-width: 0.8"/>
      </g>
     </g>
     <g id="text_6">
      <!-- 500 -->
      <g transform="translate(597.704685 541.833187) scale(0.1 -0.1)">
       <defs>
        <path id="DejaVuSans-35" d="M 691 4666 
L 3169 4666 
L 3169 4134 
L 1269 4134 
L 1269 2991 
Q 1406 3038 1543 3061 
Q 1681 3084 1819 3084 
Q 2600 3084 3056 2656 
Q 3513 2228 3513 1497 
Q 3513 744 3044 326 
Q 2575 -91 1722 -91 
Q 1428 -91 1123 -41 
Q 819 9 494 109 
L 494 744 
Q 775 591 1075 516 
Q 1375 441 1709 441 
Q 2250 441 2565 725 
Q 2881 1009 2881 1497 
Q 2881 1984 2565 2268 
Q 2250 2553 1709 2553 
Q 1456 2553 1204 2497 
Q 953 2441 691 2322 
L 691 4666 
z
" transform="scale(0.015625)"/>
       </defs>
       <use xlink:href="#DejaVuSans-35"/>
       <use xlink:href="#DejaVuSans-30" transform="translate(63.623047 0)"/>
       <use xlink:href="#DejaVuSans-30" transform="translate(127.246094 0)"/>
      </g>
     </g>
    </g>
    <g id="xtick_7">
     <g id="line2d_22">
      <path d="M 711.043156 527.23475 
L 711.043156 39.51475 
" clip-path="url(#p45540a2422)" style="fill: none; stroke: #b0b0b0; stroke-opacity: 0.3; stroke-width: 0.8; stroke-linecap: square"/>
     </g>
     <g id="line2d_23">
      <g>
       <use xlink:href="#m43f9af34d9" x="711.043156" y="527.23475" style="stroke: #000000; stroke-width: 0.8"/>
      </g>
     </g>
     <g id="text_7">
      <!-- 600 -->
      <g transform="translate(701.499406 541.833187) scale(0.1 -0.1)">
       <defs>
        <path id="DejaVuSans-36" d="M 2113 2584 
Q 1688 2584 1439 2293 
Q 1191 2003 1191 1497 
Q 1191 994 1439 701 
Q 1688 409 2113 409 
Q 2538 409 2786 701 
Q 3034 994 3034 1497 
Q 3034 2003 2786 2293 
Q 2538 2584 2113 2584 
z
M 3366 4563 
L 3366 3988 
Q 3128 4100 2886 4159 
Q 2644 4219 2406 4219 
Q 1781 4219 1451 3797 
Q 1122 3375 1075 2522 
Q 1259 2794 1537 2939 
Q 1816 3084 2150 3084 
Q 2853 3084 3261 2657 
Q 3669 2231 3669 1497 
Q 3669 778 3244 343 
Q 2819 -91 2113 -91 
Q 1303 -91 875 529 
Q 447 1150 447 2328 
Q 447 3434 972 4092 
Q 1497 4750 2381 4750 
Q 2619 4750 2861 4703 
Q 3103 4656 3366 4563 
z
" transform="scale(0.015625)"/>
       </defs>
       <use xlink:href="#DejaVuSans-36"/>
       <use xlink:href="#DejaVuSans-30" transform="translate(63.623047 0)"/>
       <use xlink:href="#DejaVuSans-30" transform="translate(127.246094 0)"/>
      </g>
     </g>
    </g>
    <g id="xtick_8">
     <g id="line2d_24">
      <path d="M 814.837877 527.23475 
L 814.837877 39.51475 
" clip-path="url(#p45540a2422)" style="fill: none; stroke: #b0b0b0; stroke-opacity: 0.3; stroke-width: 0.8; stroke-linecap: square"/>
     </g>
     <g id="line2d_25">
      <g>
       <use xlink:href="#m43f9af34d9" x="814.837877" y="527.23475" style="stroke: #000000; stroke-width: 0.8"/>
      </g>
     </g>
     <g id="text_8">
      <!-- 700 -->
      <g transform="translate(805.294127 541.833187) scale(0.1 -0.1)">
       <defs>
        <path id="DejaVuSans-37" d="M 525 4666 
L 3525 4666 
L 3525 4397 
L 1831 0 
L 1172 0 
L 2766 4134 
L 525 4134 
L 525 4666 
z
" transform="scale(0.015625)"/>
       </defs>
       <use xlink:href="#DejaVuSans-37"/>
       <use xlink:href="#DejaVuSans-30" transform="translate(63.623047 0)"/>
       <use xlink:href="#DejaVuSans-30" transform="translate(127.246094 0)"/>
      </g>
     </g>
    </g>
    <g id="text_9">
     <!-- Sparsity (L0) -->
     <g transform="translate(412.0225 557.031) scale(0.12 -0.12)">
      <defs>
       <path id="DejaVuSans-53" d="M 3425 4513 
L 3425 3897 
Q 3066 4069 2747 4153 
Q 2428 4238 2131 4238 
Q 1616 4238 1336 4038 
Q 1056 3838 1056 3469 
Q 1056 3159 1242 3001 
Q 1428 2844 1947 2747 
L 2328 2669 
Q 3034 2534 3370 2195 
Q 3706 1856 3706 1288 
Q 3706 609 3251 259 
Q 2797 -91 1919 -91 
Q 1588 -91 1214 -16 
Q 841 59 441 206 
L 441 856 
Q 825 641 1194 531 
Q 1563 422 1919 422 
Q 2459 422 2753 634 
Q 3047 847 3047 1241 
Q 3047 1584 2836 1778 
Q 2625 1972 2144 2069 
L 1759 2144 
Q 1053 2284 737 2584 
Q 422 2884 422 3419 
Q 422 4038 858 4394 
Q 1294 4750 2059 4750 
Q 2388 4750 2728 4690 
Q 3069 4631 3425 4513 
z
" transform="scale(0.015625)"/>
       <path id="DejaVuSans-70" d="M 1159 525 
L 1159 -1331 
L 581 -1331 
L 581 3500 
L 1159 3500 
L 1159 2969 
Q 1341 3281 1617 3432 
Q 1894 3584 2278 3584 
Q 2916 3584 3314 3078 
Q 3713 2572 3713 1747 
Q 3713 922 3314 415 
Q 2916 -91 2278 -91 
Q 1894 -91 1617 61 
Q 1341 213 1159 525 
z
M 3116 1747 
Q 3116 2381 2855 2742 
Q 2594 3103 2138 3103 
Q 1681 3103 1420 2742 
Q 1159 2381 1159 1747 
Q 1159 1113 1420 752 
Q 1681 391 2138 391 
Q 2594 391 2855 752 
Q 3116 1113 3116 1747 
z
" transform="scale(0.015625)"/>
       <path id="DejaVuSans-61" d="M 2194 1759 
Q 1497 1759 1228 1600 
Q 959 1441 959 1056 
Q 959 750 1161 570 
Q 1363 391 1709 391 
Q 2188 391 2477 730 
Q 2766 1069 2766 1631 
L 2766 1759 
L 2194 1759 
z
M 3341 1997 
L 3341 0 
L 2766 0 
L 2766 531 
Q 2569 213 2275 61 
Q 1981 -91 1556 -91 
Q 1019 -91 701 211 
Q 384 513 384 1019 
Q 384 1609 779 1909 
Q 1175 2209 1959 2209 
L 2766 2209 
L 2766 2266 
Q 2766 2663 2505 2880 
Q 2244 3097 1772 3097 
Q 1472 3097 1187 3025 
Q 903 2953 641 2809 
L 641 3341 
Q 956 3463 1253 3523 
Q 1550 3584 1831 3584 
Q 2591 3584 2966 3190 
Q 3341 2797 3341 1997 
z
" transform="scale(0.015625)"/>
       <path id="DejaVuSans-72" d="M 2631 2963 
Q 2534 3019 2420 3045 
Q 2306 3072 2169 3072 
Q 1681 3072 1420 2755 
Q 1159 2438 1159 1844 
L 1159 0 
L 581 0 
L 581 3500 
L 1159 3500 
L 1159 2956 
Q 1341 3275 1631 3429 
Q 1922 3584 2338 3584 
Q 2397 3584 2469 3576 
Q 2541 3569 2628 3553 
L 2631 2963 
z
" transform="scale(0.015625)"/>
       <path id="DejaVuSans-73" d="M 2834 3397 
L 2834 2853 
Q 2591 2978 2328 3040 
Q 2066 3103 1784 3103 
Q 1356 3103 1142 2972 
Q 928 2841 928 2578 
Q 928 2378 1081 2264 
Q 1234 2150 1697 2047 
L 1894 2003 
Q 2506 1872 2764 1633 
Q 3022 1394 3022 966 
Q 3022 478 2636 193 
Q 2250 -91 1575 -91 
Q 1294 -91 989 -36 
Q 684 19 347 128 
L 347 722 
Q 666 556 975 473 
Q 1284 391 1588 391 
Q 1994 391 2212 530 
Q 2431 669 2431 922 
Q 2431 1156 2273 1281 
Q 2116 1406 1581 1522 
L 1381 1569 
Q 847 1681 609 1914 
Q 372 2147 372 2553 
Q 372 3047 722 3315 
Q 1072 3584 1716 3584 
Q 2034 3584 2315 3537 
Q 2597 3491 2834 3397 
z
" transform="scale(0.015625)"/>
       <path id="DejaVuSans-69" d="M 603 3500 
L 1178 3500 
L 1178 0 
L 603 0 
L 603 3500 
z
M 603 4863 
L 1178 4863 
L 1178 4134 
L 603 4134 
L 603 4863 
z
" transform="scale(0.015625)"/>
       <path id="DejaVuSans-74" d="M 1172 4494 
L 1172 3500 
L 2356 3500 
L 2356 3053 
L 1172 3053 
L 1172 1153 
Q 1172 725 1289 603 
Q 1406 481 1766 481 
L 2356 481 
L 2356 0 
L 1766 0 
Q 1100 0 847 248 
Q 594 497 594 1153 
L 594 3053 
L 172 3053 
L 172 3500 
L 594 3500 
L 594 4494 
L 1172 4494 
z
" transform="scale(0.015625)"/>
       <path id="DejaVuSans-79" d="M 2059 -325 
Q 1816 -950 1584 -1140 
Q 1353 -1331 966 -1331 
L 506 -1331 
L 506 -850 
L 844 -850 
Q 1081 -850 1212 -737 
Q 1344 -625 1503 -206 
L 1606 56 
L 191 3500 
L 800 3500 
L 1894 763 
L 2988 3500 
L 3597 3500 
L 2059 -325 
z
" transform="scale(0.015625)"/>
       <path id="DejaVuSans-20" transform="scale(0.015625)"/>
       <path id="DejaVuSans-28" d="M 1984 4856 
Q 1566 4138 1362 3434 
Q 1159 2731 1159 2009 
Q 1159 1288 1364 580 
Q 1569 -128 1984 -844 
L 1484 -844 
Q 1016 -109 783 600 
Q 550 1309 550 2009 
Q 550 2706 781 3412 
Q 1013 4119 1484 4856 
L 1984 4856 
z
" transform="scale(0.015625)"/>
       <path id="DejaVuSans-4c" d="M 628 4666 
L 1259 4666 
L 1259 531 
L 3531 531 
L 3531 0 
L 628 0 
L 628 4666 
z
" transform="scale(0.015625)"/>
       <path id="DejaVuSans-29" d="M 513 4856 
L 1013 4856 
Q 1481 4119 1714 3412 
Q 1947 2706 1947 2009 
Q 1947 1309 1714 600 
Q 1481 -109 1013 -844 
L 513 -844 
Q 928 -128 1133 580 
Q 1338 1288 1338 2009 
Q 1338 2731 1133 3434 
Q 928 4138 513 4856 
z
" transform="scale(0.015625)"/>
      </defs>
      <use xlink:href="#DejaVuSans-53"/>
      <use xlink:href="#DejaVuSans-70" transform="translate(63.476562 0)"/>
      <use xlink:href="#DejaVuSans-61" transform="translate(126.953125 0)"/>
      <use xlink:href="#DejaVuSans-72" transform="translate(188.232422 0)"/>
      <use xlink:href="#DejaVuSans-73" transform="translate(229.345703 0)"/>
      <use xlink:href="#DejaVuSans-69" transform="translate(281.445312 0)"/>
      <use xlink:href="#DejaVuSans-74" transform="translate(309.228516 0)"/>
      <use xlink:href="#DejaVuSans-79" transform="translate(348.4375 0)"/>
      <use xlink:href="#DejaVuSans-20" transform="translate(407.617188 0)"/>
      <use xlink:href="#DejaVuSans-28" transform="translate(439.404297 0)"/>
      <use xlink:href="#DejaVuSans-4c" transform="translate(478.417969 0)"/>
      <use xlink:href="#DejaVuSans-30" transform="translate(534.130859 0)"/>
      <use xlink:href="#DejaVuSans-29" transform="translate(597.753906 0)"/>
     </g>
    </g>
   </g>
   <g id="matplotlib.axis_2">
    <g id="ytick_1">
     <g id="line2d_26">
      <path d="M 52.079375 527.23475 
L 848.379375 527.23475 
" clip-path="url(#p45540a2422)" style="fill: none; stroke: #b0b0b0; stroke-opacity: 0.3; stroke-width: 0.8; stroke-linecap: square"/>
     </g>
     <g id="line2d_27">
      <defs>
       <path id="ma6cefe708b" d="M 0 0 
L -3.5 0 
" style="stroke: #000000; stroke-width: 0.8"/>
      </defs>
      <g>
       <use xlink:href="#ma6cefe708b" x="52.079375" y="527.23475" style="stroke: #000000; stroke-width: 0.8"/>
      </g>
     </g>
     <g id="text_10">
      <!-- 0.80 -->
      <g transform="translate(22.81375 531.033969) scale(0.1 -0.1)">
       <defs>
        <path id="DejaVuSans-2e" d="M 684 794 
L 1344 794 
L 1344 0 
L 684 0 
L 684 794 
z
" transform="scale(0.015625)"/>
        <path id="DejaVuSans-38" d="M 2034 2216 
Q 1584 2216 1326 1975 
Q 1069 1734 1069 1313 
Q 1069 891 1326 650 
Q 1584 409 2034 409 
Q 2484 409 2743 651 
Q 3003 894 3003 1313 
Q 3003 1734 2745 1975 
Q 2488 2216 2034 2216 
z
M 1403 2484 
Q 997 2584 770 2862 
Q 544 3141 544 3541 
Q 544 4100 942 4425 
Q 1341 4750 2034 4750 
Q 2731 4750 3128 4425 
Q 3525 4100 3525 3541 
Q 3525 3141 3298 2862 
Q 3072 2584 2669 2484 
Q 3125 2378 3379 2068 
Q 3634 1759 3634 1313 
Q 3634 634 3220 271 
Q 2806 -91 2034 -91 
Q 1263 -91 848 271 
Q 434 634 434 1313 
Q 434 1759 690 2068 
Q 947 2378 1403 2484 
z
M 1172 3481 
Q 1172 3119 1398 2916 
Q 1625 2713 2034 2713 
Q 2441 2713 2670 2916 
Q 2900 3119 2900 3481 
Q 2900 3844 2670 4047 
Q 2441 4250 2034 4250 
Q 1625 4250 1398 4047 
Q 1172 3844 1172 3481 
z
" transform="scale(0.015625)"/>
       </defs>
       <use xlink:href="#DejaVuSans-30"/>
       <use xlink:href="#DejaVuSans-2e" transform="translate(63.623047 0)"/>
       <use xlink:href="#DejaVuSans-38" transform="translate(95.410156 0)"/>
       <use xlink:href="#DejaVuSans-30" transform="translate(159.033203 0)"/>
      </g>
     </g>
    </g>
    <g id="ytick_2">
     <g id="line2d_28">
      <path d="M 52.079375 406.511978 
L 848.379375 406.511978 
" clip-path="url(#p45540a2422)" style="fill: none; stroke: #b0b0b0; stroke-opacity: 0.3; stroke-width: 0.8; stroke-linecap: square"/>
     </g>
     <g id="line2d_29">
      <g>
       <use xlink:href="#ma6cefe708b" x="52.079375" y="406.511978" style="stroke: #000000; stroke-width: 0.8"/>
      </g>
     </g>
     <g id="text_11">
      <!-- 0.85 -->
      <g transform="translate(22.81375 410.311196) scale(0.1 -0.1)">
       <use xlink:href="#DejaVuSans-30"/>
       <use xlink:href="#DejaVuSans-2e" transform="translate(63.623047 0)"/>
       <use xlink:href="#DejaVuSans-38" transform="translate(95.410156 0)"/>
       <use xlink:href="#DejaVuSans-35" transform="translate(159.033203 0)"/>
      </g>
     </g>
    </g>
    <g id="ytick_3">
     <g id="line2d_30">
      <path d="M 52.079375 285.789205 
L 848.379375 285.789205 
" clip-path="url(#p45540a2422)" style="fill: none; stroke: #b0b0b0; stroke-opacity: 0.3; stroke-width: 0.8; stroke-linecap: square"/>
     </g>
     <g id="line2d_31">
      <g>
       <use xlink:href="#ma6cefe708b" x="52.079375" y="285.789205" style="stroke: #000000; stroke-width: 0.8"/>
      </g>
     </g>
     <g id="text_12">
      <!-- 0.90 -->
      <g transform="translate(22.81375 289.588424) scale(0.1 -0.1)">
       <defs>
        <path id="DejaVuSans-39" d="M 703 97 
L 703 672 
Q 941 559 1184 500 
Q 1428 441 1663 441 
Q 2288 441 2617 861 
Q 2947 1281 2994 2138 
Q 2813 1869 2534 1725 
Q 2256 1581 1919 1581 
Q 1219 1581 811 2004 
Q 403 2428 403 3163 
Q 403 3881 828 4315 
Q 1253 4750 1959 4750 
Q 2769 4750 3195 4129 
Q 3622 3509 3622 2328 
Q 3622 1225 3098 567 
Q 2575 -91 1691 -91 
Q 1453 -91 1209 -44 
Q 966 3 703 97 
z
M 1959 2075 
Q 2384 2075 2632 2365 
Q 2881 2656 2881 3163 
Q 2881 3666 2632 3958 
Q 2384 4250 1959 4250 
Q 1534 4250 1286 3958 
Q 1038 3666 1038 3163 
Q 1038 2656 1286 2365 
Q 1534 2075 1959 2075 
z
" transform="scale(0.015625)"/>
       </defs>
       <use xlink:href="#DejaVuSans-30"/>
       <use xlink:href="#DejaVuSans-2e" transform="translate(63.623047 0)"/>
       <use xlink:href="#DejaVuSans-39" transform="translate(95.410156 0)"/>
       <use xlink:href="#DejaVuSans-30" transform="translate(159.033203 0)"/>
      </g>
     </g>
    </g>
    <g id="ytick_4">
     <g id="line2d_32">
      <path d="M 52.079375 165.066433 
L 848.379375 165.066433 
" clip-path="url(#p45540a2422)" style="fill: none; stroke: #b0b0b0; stroke-opacity: 0.3; stroke-width: 0.8; stroke-linecap: square"/>
     </g>
     <g id="line2d_33">
      <g>
       <use xlink:href="#ma6cefe708b" x="52.079375" y="165.066433" style="stroke: #000000; stroke-width: 0.8"/>
      </g>
     </g>
     <g id="text_13">
      <!-- 0.95 -->
      <g transform="translate(22.81375 168.865652) scale(0.1 -0.1)">
       <use xlink:href="#DejaVuSans-30"/>
       <use xlink:href="#DejaVuSans-2e" transform="translate(63.623047 0)"/>
       <use xlink:href="#DejaVuSans-39" transform="translate(95.410156 0)"/>
       <use xlink:href="#DejaVuSans-35" transform="translate(159.033203 0)"/>
      </g>
     </g>
    </g>
    <g id="ytick_5">
     <g id="line2d_34">
      <path d="M 52.079375 44.343661 
L 848.379375 44.343661 
" clip-path="url(#p45540a2422)" style="fill: none; stroke: #b0b0b0; stroke-opacity: 0.3; stroke-width: 0.8; stroke-linecap: square"/>
     </g>
     <g id="line2d_35">
      <g>
       <use xlink:href="#ma6cefe708b" x="52.079375" y="44.343661" style="stroke: #000000; stroke-width: 0.8"/>
      </g>
     </g>
     <g id="text_14">
      <!-- 1.00 -->
      <g transform="translate(22.81375 48.14288) scale(0.1 -0.1)">
       <use xlink:href="#DejaVuSans-31"/>
       <use xlink:href="#DejaVuSans-2e" transform="translate(63.623047 0)"/>
       <use xlink:href="#DejaVuSans-30" transform="translate(95.410156 0)"/>
       <use xlink:href="#DejaVuSans-30" transform="translate(159.033203 0)"/>
      </g>
     </g>
    </g>
    <g id="text_15">
     <!-- Explained Variance -->
     <g transform="translate(16.318125 340.66725) rotate(-90) scale(0.12 -0.12)">
      <defs>
       <path id="DejaVuSans-45" d="M 628 4666 
L 3578 4666 
L 3578 4134 
L 1259 4134 
L 1259 2753 
L 3481 2753 
L 3481 2222 
L 1259 2222 
L 1259 531 
L 3634 531 
L 3634 0 
L 628 0 
L 628 4666 
z
" transform="scale(0.015625)"/>
       <path id="DejaVuSans-78" d="M 3513 3500 
L 2247 1797 
L 3578 0 
L 2900 0 
L 1881 1375 
L 863 0 
L 184 0 
L 1544 1831 
L 300 3500 
L 978 3500 
L 1906 2253 
L 2834 3500 
L 3513 3500 
z
" transform="scale(0.015625)"/>
       <path id="DejaVuSans-6c" d="M 603 4863 
L 1178 4863 
L 1178 0 
L 603 0 
L 603 4863 
z
" transform="scale(0.015625)"/>
       <path id="DejaVuSans-6e" d="M 3513 2113 
L 3513 0 
L 2938 0 
L 2938 2094 
Q 2938 2591 2744 2837 
Q 2550 3084 2163 3084 
Q 1697 3084 1428 2787 
Q 1159 2491 1159 1978 
L 1159 0 
L 581 0 
L 581 3500 
L 1159 3500 
L 1159 2956 
Q 1366 3272 1645 3428 
Q 1925 3584 2291 3584 
Q 2894 3584 3203 3211 
Q 3513 2838 3513 2113 
z
" transform="scale(0.015625)"/>
       <path id="DejaVuSans-65" d="M 3597 1894 
L 3597 1613 
L 953 1613 
Q 991 1019 1311 708 
Q 1631 397 2203 397 
Q 2534 397 2845 478 
Q 3156 559 3463 722 
L 3463 178 
Q 3153 47 2828 -22 
Q 2503 -91 2169 -91 
Q 1331 -91 842 396 
Q 353 884 353 1716 
Q 353 2575 817 3079 
Q 1281 3584 2069 3584 
Q 2775 3584 3186 3129 
Q 3597 2675 3597 1894 
z
M 3022 2063 
Q 3016 2534 2758 2815 
Q 2500 3097 2075 3097 
Q 1594 3097 1305 2825 
Q 1016 2553 972 2059 
L 3022 2063 
z
" transform="scale(0.015625)"/>
       <path id="DejaVuSans-64" d="M 2906 2969 
L 2906 4863 
L 3481 4863 
L 3481 0 
L 2906 0 
L 2906 525 
Q 2725 213 2448 61 
Q 2172 -91 1784 -91 
Q 1150 -91 751 415 
Q 353 922 353 1747 
Q 353 2572 751 3078 
Q 1150 3584 1784 3584 
Q 2172 3584 2448 3432 
Q 2725 3281 2906 2969 
z
M 947 1747 
Q 947 1113 1208 752 
Q 1469 391 1925 391 
Q 2381 391 2643 752 
Q 2906 1113 2906 1747 
Q 2906 2381 2643 2742 
Q 2381 3103 1925 3103 
Q 1469 3103 1208 2742 
Q 947 2381 947 1747 
z
" transform="scale(0.015625)"/>
       <path id="DejaVuSans-56" d="M 1831 0 
L 50 4666 
L 709 4666 
L 2188 738 
L 3669 4666 
L 4325 4666 
L 2547 0 
L 1831 0 
z
" transform="scale(0.015625)"/>
       <path id="DejaVuSans-63" d="M 3122 3366 
L 3122 2828 
Q 2878 2963 2633 3030 
Q 2388 3097 2138 3097 
Q 1578 3097 1268 2742 
Q 959 2388 959 1747 
Q 959 1106 1268 751 
Q 1578 397 2138 397 
Q 2388 397 2633 464 
Q 2878 531 3122 666 
L 3122 134 
Q 2881 22 2623 -34 
Q 2366 -91 2075 -91 
Q 1284 -91 818 406 
Q 353 903 353 1747 
Q 353 2603 823 3093 
Q 1294 3584 2113 3584 
Q 2378 3584 2631 3529 
Q 2884 3475 3122 3366 
z
" transform="scale(0.015625)"/>
      </defs>
      <use xlink:href="#DejaVuSans-45"/>
      <use xlink:href="#DejaVuSans-78" transform="translate(63.183594 0)"/>
      <use xlink:href="#DejaVuSans-70" transform="translate(122.363281 0)"/>
      <use xlink:href="#DejaVuSans-6c" transform="translate(185.839844 0)"/>
      <use xlink:href="#DejaVuSans-61" transform="translate(213.623047 0)"/>
      <use xlink:href="#DejaVuSans-69" transform="translate(274.902344 0)"/>
      <use xlink:href="#DejaVuSans-6e" transform="translate(302.685547 0)"/>
      <use xlink:href="#DejaVuSans-65" transform="translate(366.064453 0)"/>
      <use xlink:href="#DejaVuSans-64" transform="translate(427.587891 0)"/>
      <use xlink:href="#DejaVuSans-20" transform="translate(491.064453 0)"/>
      <use xlink:href="#DejaVuSans-56" transform="translate(522.851562 0)"/>
      <use xlink:href="#DejaVuSans-61" transform="translate(583.509766 0)"/>
      <use xlink:href="#DejaVuSans-72" transform="translate(644.789062 0)"/>
      <use xlink:href="#DejaVuSans-69" transform="translate(685.902344 0)"/>
      <use xlink:href="#DejaVuSans-61" transform="translate(713.685547 0)"/>
      <use xlink:href="#DejaVuSans-6e" transform="translate(774.964844 0)"/>
      <use xlink:href="#DejaVuSans-63" transform="translate(838.34375 0)"/>
      <use xlink:href="#DejaVuSans-65" transform="translate(893.324219 0)"/>
     </g>
    </g>
   </g>
   <g id="PathCollection_1">
    <defs>
     <path id="m3a0aad4b08" d="M 0 3.162278 
C 0.838646 3.162278 1.643056 2.82908 2.236068 2.236068 
C 2.82908 1.643056 3.162278 0.838646 3.162278 0 
C 3.162278 -0.838646 2.82908 -1.643056 2.236068 -2.236068 
C 1.643056 -2.82908 0.838646 -3.162278 0 -3.162278 
C -0.838646 -3.162278 -1.643056 -2.82908 -2.236068 -2.236068 
C -2.82908 -1.643056 -3.162278 -0.838646 -3.162278 0 
C -3.162278 0.838646 -2.82908 1.643056 -2.236068 2.236068 
C -1.643056 2.82908 -0.838646 3.162278 0 3.162278 
z
" style="stroke: #000000; stroke-opacity: 0.7; stroke-width: 0.5"/>
    </defs>
    <g clip-path="url(#p45540a2422)">
     <use xlink:href="#m3a0aad4b08" x="97.752383" y="40805.317" style="fill: #d62728; fill-opacity: 0.7; stroke: #000000; stroke-opacity: 0.7; stroke-width: 0.5"/>
     <use xlink:href="#m3a0aad4b08" x="100.218961" y="692.819878" style="fill: #d62728; fill-opacity: 0.7; stroke: #000000; stroke-opacity: 0.7; stroke-width: 0.5"/>
     <use xlink:href="#m3a0aad4b08" x="110.155994" y="257.524221" style="fill: #d62728; fill-opacity: 0.7; stroke: #000000; stroke-opacity: 0.7; stroke-width: 0.5"/>
     <use xlink:href="#m3a0aad4b08" x="162.549413" y="81.389396" style="fill: #d62728; fill-opacity: 0.7; stroke: #000000; stroke-opacity: 0.7; stroke-width: 0.5"/>
     <use xlink:href="#m3a0aad4b08" x="193.510655" y="61.982184" style="fill: #d62728; fill-opacity: 0.7; stroke: #000000; stroke-opacity: 0.7; stroke-width: 0.5"/>
    </g>
   </g>
   <g id="PathCollection_2">
    <defs>
     <path id="m08e6200a84" d="M -3.162278 3.162278 
L 3.162278 3.162278 
L 3.162278 -3.162278 
L -3.162278 -3.162278 
z
" style="stroke: #000000; stroke-opacity: 0.7; stroke-width: 0.5"/>
    </defs>
    <g clip-path="url(#p45540a2422)">
     <use xlink:href="#m08e6200a84" x="89.258577" y="40805.317" style="fill: #2ca02c; fill-opacity: 0.7; stroke: #000000; stroke-opacity: 0.7; stroke-width: 0.5"/>
     <use xlink:href="#m08e6200a84" x="89.258615" y="11318.553258" style="fill: #2ca02c; fill-opacity: 0.7; stroke: #000000; stroke-opacity: 0.7; stroke-width: 0.5"/>
     <use xlink:href="#m08e6200a84" x="90.9799" y="3223.313837" style="fill: #2ca02c; fill-opacity: 0.7; stroke: #000000; stroke-opacity: 0.7; stroke-width: 0.5"/>
     <use xlink:href="#m08e6200a84" x="108.836824" y="122.192117" style="fill: #2ca02c; fill-opacity: 0.7; stroke: #000000; stroke-opacity: 0.7; stroke-width: 0.5"/>
     <use xlink:href="#m08e6200a84" x="117.865035" y="50.250704" style="fill: #2ca02c; fill-opacity: 0.7; stroke: #000000; stroke-opacity: 0.7; stroke-width: 0.5"/>
     <use xlink:href="#m08e6200a84" x="117.865035" y="40805.317" style="fill: #2ca02c; fill-opacity: 0.7; stroke: #000000; stroke-opacity: 0.7; stroke-width: 0.5"/>
     <use xlink:href="#m08e6200a84" x="131.939733" y="40805.317" style="fill: #2ca02c; fill-opacity: 0.7; stroke: #000000; stroke-opacity: 0.7; stroke-width: 0.5"/>
     <use xlink:href="#m08e6200a84" x="131.939733" y="44.371868" style="fill: #2ca02c; fill-opacity: 0.7; stroke: #000000; stroke-opacity: 0.7; stroke-width: 0.5"/>
     <use xlink:href="#m08e6200a84" x="131.939733" y="40805.317" style="fill: #2ca02c; fill-opacity: 0.7; stroke: #000000; stroke-opacity: 0.7; stroke-width: 0.5"/>
     <use xlink:href="#m08e6200a84" x="140.163782" y="40805.317" style="fill: #2ca02c; fill-opacity: 0.7; stroke: #000000; stroke-opacity: 0.7; stroke-width: 0.5"/>
     <use xlink:href="#m08e6200a84" x="140.163782" y="44.403097" style="fill: #2ca02c; fill-opacity: 0.7; stroke: #000000; stroke-opacity: 0.7; stroke-width: 0.5"/>
     <use xlink:href="#m08e6200a84" x="91.275128" y="3086.899724" style="fill: #2ca02c; fill-opacity: 0.7; stroke: #000000; stroke-opacity: 0.7; stroke-width: 0.5"/>
     <use xlink:href="#m08e6200a84" x="193.163597" y="46.504655" style="fill: #2ca02c; fill-opacity: 0.7; stroke: #000000; stroke-opacity: 0.7; stroke-width: 0.5"/>
     <use xlink:href="#m08e6200a84" x="95.177507" y="989.379174" style="fill: #2ca02c; fill-opacity: 0.7; stroke: #000000; stroke-opacity: 0.7; stroke-width: 0.5"/>
     <use xlink:href="#m08e6200a84" x="112.670569" y="81.502655" style="fill: #2ca02c; fill-opacity: 0.7; stroke: #000000; stroke-opacity: 0.7; stroke-width: 0.5"/>
    </g>
   </g>
   <g id="PathCollection_3">
    <defs>
     <path id="m8553ea04a7" d="M 0 -3.162278 
L -3.162278 3.162278 
L 3.162278 3.162278 
z
" style="stroke: #000000; stroke-opacity: 0.7; stroke-width: 0.5"/>
    </defs>
    <g clip-path="url(#p45540a2422)">
     <use xlink:href="#m8553ea04a7" x="89.488257" y="40805.317" style="fill: #ff7f0e; fill-opacity: 0.7; stroke: #000000; stroke-opacity: 0.7; stroke-width: 0.5"/>
     <use xlink:href="#m8553ea04a7" x="89.488257" y="2761.372049" style="fill: #ff7f0e; fill-opacity: 0.7; stroke: #000000; stroke-opacity: 0.7; stroke-width: 0.5"/>
     <use xlink:href="#m8553ea04a7" x="91.251393" y="591.453343" style="fill: #ff7f0e; fill-opacity: 0.7; stroke: #000000; stroke-opacity: 0.7; stroke-width: 0.5"/>
     <use xlink:href="#m8553ea04a7" x="105.149901" y="126.214766" style="fill: #ff7f0e; fill-opacity: 0.7; stroke: #000000; stroke-opacity: 0.7; stroke-width: 0.5"/>
     <use xlink:href="#m8553ea04a7" x="121.481387" y="68.047819" style="fill: #ff7f0e; fill-opacity: 0.7; stroke: #000000; stroke-opacity: 0.7; stroke-width: 0.5"/>
     <use xlink:href="#m8553ea04a7" x="155.456986" y="45.92555" style="fill: #ff7f0e; fill-opacity: 0.7; stroke: #000000; stroke-opacity: 0.7; stroke-width: 0.5"/>
     <use xlink:href="#m8553ea04a7" x="160.128606" y="48.316229" style="fill: #ff7f0e; fill-opacity: 0.7; stroke: #000000; stroke-opacity: 0.7; stroke-width: 0.5"/>
    </g>
   </g>
   <g id="PathCollection_4">
    <defs>
     <path id="m6fbad398fb" d="M 0 3.535534 
C 0.937635 3.535534 1.836992 3.163008 2.5 2.5 
C 3.163008 1.836992 3.535534 0.937635 3.535534 0 
C 3.535534 -0.937635 3.163008 -1.836992 2.5 -2.5 
C 1.836992 -3.163008 0.937635 -3.535534 0 -3.535534 
C -0.937635 -3.535534 -1.836992 -3.163008 -2.5 -2.5 
C -3.163008 -1.836992 -3.535534 -0.937635 -3.535534 0 
C -3.535534 0.937635 -3.163008 1.836992 -2.5 2.5 
C -1.836992 3.163008 -0.937635 3.535534 0 3.535534 
z
" style="stroke: #000000; stroke-opacity: 0.7; stroke-width: 0.5"/>
    </defs>
    <g clip-path="url(#p45540a2422)">
     <use xlink:href="#m6fbad398fb" x="93.699756" y="40805.317" style="fill: #d62728; fill-opacity: 0.7; stroke: #000000; stroke-opacity: 0.7; stroke-width: 0.5"/>
     <use xlink:href="#m6fbad398fb" x="93.699756" y="8184.951364" style="fill: #d62728; fill-opacity: 0.7; stroke: #000000; stroke-opacity: 0.7; stroke-width: 0.5"/>
     <use xlink:href="#m6fbad398fb" x="103.830646" y="1377.942473" style="fill: #d62728; fill-opacity: 0.7; stroke: #000000; stroke-opacity: 0.7; stroke-width: 0.5"/>
     <use xlink:href="#m6fbad398fb" x="171.36055" y="170.907593" style="fill: #d62728; fill-opacity: 0.7; stroke: #000000; stroke-opacity: 0.7; stroke-width: 0.5"/>
     <use xlink:href="#m6fbad398fb" x="199.389894" y="86.30085" style="fill: #d62728; fill-opacity: 0.7; stroke: #000000; stroke-opacity: 0.7; stroke-width: 0.5"/>
    </g>
   </g>
   <g id="PathCollection_5">
    <defs>
     <path id="ma53ade723e" d="M -3.535534 3.535534 
L 3.535534 3.535534 
L 3.535534 -3.535534 
L -3.535534 -3.535534 
z
" style="stroke: #000000; stroke-opacity: 0.7; stroke-width: 0.5"/>
    </defs>
    <g clip-path="url(#p45540a2422)">
     <use xlink:href="#ma53ade723e" x="89.592392" y="40805.317" style="fill: #2ca02c; fill-opacity: 0.7; stroke: #000000; stroke-opacity: 0.7; stroke-width: 0.5"/>
     <use xlink:href="#ma53ade723e" x="89.592392" y="8496.483343" style="fill: #2ca02c; fill-opacity: 0.7; stroke: #000000; stroke-opacity: 0.7; stroke-width: 0.5"/>
     <use xlink:href="#ma53ade723e" x="94.237319" y="1844.854971" style="fill: #2ca02c; fill-opacity: 0.7; stroke: #000000; stroke-opacity: 0.7; stroke-width: 0.5"/>
     <use xlink:href="#ma53ade723e" x="94.237319" y="40805.317" style="fill: #2ca02c; fill-opacity: 0.7; stroke: #000000; stroke-opacity: 0.7; stroke-width: 0.5"/>
     <use xlink:href="#ma53ade723e" x="117.351942" y="40805.317" style="fill: #2ca02c; fill-opacity: 0.7; stroke: #000000; stroke-opacity: 0.7; stroke-width: 0.5"/>
     <use xlink:href="#ma53ade723e" x="117.351942" y="75.281738" style="fill: #2ca02c; fill-opacity: 0.7; stroke: #000000; stroke-opacity: 0.7; stroke-width: 0.5"/>
     <use xlink:href="#ma53ade723e" x="117.351942" y="40805.317" style="fill: #2ca02c; fill-opacity: 0.7; stroke: #000000; stroke-opacity: 0.7; stroke-width: 0.5"/>
     <use xlink:href="#ma53ade723e" x="138.593266" y="40805.317" style="fill: #2ca02c; fill-opacity: 0.7; stroke: #000000; stroke-opacity: 0.7; stroke-width: 0.5"/>
     <use xlink:href="#ma53ade723e" x="138.593266" y="47.524565" style="fill: #2ca02c; fill-opacity: 0.7; stroke: #000000; stroke-opacity: 0.7; stroke-width: 0.5"/>
     <use xlink:href="#ma53ade723e" x="138.592947" y="40805.317" style="fill: #2ca02c; fill-opacity: 0.7; stroke: #000000; stroke-opacity: 0.7; stroke-width: 0.5"/>
     <use xlink:href="#ma53ade723e" x="812.179445" y="40805.317" style="fill: #2ca02c; fill-opacity: 0.7; stroke: #000000; stroke-opacity: 0.7; stroke-width: 0.5"/>
     <use xlink:href="#ma53ade723e" x="812.18392" y="1571.343736" style="fill: #2ca02c; fill-opacity: 0.7; stroke: #000000; stroke-opacity: 0.7; stroke-width: 0.5"/>
     <use xlink:href="#ma53ade723e" x="91.174512" y="4489.38281" style="fill: #2ca02c; fill-opacity: 0.7; stroke: #000000; stroke-opacity: 0.7; stroke-width: 0.5"/>
     <use xlink:href="#ma53ade723e" x="106.629933" y="364.039667" style="fill: #2ca02c; fill-opacity: 0.7; stroke: #000000; stroke-opacity: 0.7; stroke-width: 0.5"/>
    </g>
   </g>
   <g id="PathCollection_6">
    <defs>
     <path id="m77fd095d80" d="M 0 -3.535534 
L -3.535534 3.535534 
L 3.535534 3.535534 
z
" style="stroke: #000000; stroke-opacity: 0.7; stroke-width: 0.5"/>
    </defs>
    <g clip-path="url(#p45540a2422)">
     <use xlink:href="#m77fd095d80" x="90.329701" y="40805.317" style="fill: #ff7f0e; fill-opacity: 0.7; stroke: #000000; stroke-opacity: 0.7; stroke-width: 0.5"/>
     <use xlink:href="#m77fd095d80" x="90.333136" y="3374.955359" style="fill: #ff7f0e; fill-opacity: 0.7; stroke: #000000; stroke-opacity: 0.7; stroke-width: 0.5"/>
     <use xlink:href="#m77fd095d80" x="100.626527" y="411.863028" style="fill: #ff7f0e; fill-opacity: 0.7; stroke: #000000; stroke-opacity: 0.7; stroke-width: 0.5"/>
     <use xlink:href="#m77fd095d80" x="111.394924" y="237.613172" style="fill: #ff7f0e; fill-opacity: 0.7; stroke: #000000; stroke-opacity: 0.7; stroke-width: 0.5"/>
     <use xlink:href="#m77fd095d80" x="154.831132" y="49.097243" style="fill: #ff7f0e; fill-opacity: 0.7; stroke: #000000; stroke-opacity: 0.7; stroke-width: 0.5"/>
     <use xlink:href="#m77fd095d80" x="154.388031" y="44.59263" style="fill: #ff7f0e; fill-opacity: 0.7; stroke: #000000; stroke-opacity: 0.7; stroke-width: 0.5"/>
    </g>
   </g>
   <g id="PathCollection_7">
    <defs>
     <path id="mff86e5d22a" d="M 0 3.872983 
C 1.027127 3.872983 2.012324 3.464901 2.738613 2.738613 
C 3.464901 2.012324 3.872983 1.027127 3.872983 0 
C 3.872983 -1.027127 3.464901 -2.012324 2.738613 -2.738613 
C 2.012324 -3.464901 1.027127 -3.872983 0 -3.872983 
C -1.027127 -3.872983 -2.012324 -3.464901 -2.738613 -2.738613 
C -3.464901 -2.012324 -3.872983 -1.027127 -3.872983 0 
C -3.872983 1.027127 -3.464901 2.012324 -2.738613 2.738613 
C -2.012324 3.464901 -1.027127 3.872983 0 3.872983 
z
" style="stroke: #000000; stroke-opacity: 0.7; stroke-width: 0.5"/>
    </defs>
    <g clip-path="url(#p45540a2422)">
     <use xlink:href="#mff86e5d22a" x="91.628409" y="40805.317" style="fill: #d62728; fill-opacity: 0.7; stroke: #000000; stroke-opacity: 0.7; stroke-width: 0.5"/>
     <use xlink:href="#mff86e5d22a" x="91.628409" y="20822.845455" style="fill: #d62728; fill-opacity: 0.7; stroke: #000000; stroke-opacity: 0.7; stroke-width: 0.5"/>
     <use xlink:href="#mff86e5d22a" x="98.276886" y="2460.117683" style="fill: #d62728; fill-opacity: 0.7; stroke: #000000; stroke-opacity: 0.7; stroke-width: 0.5"/>
     <use xlink:href="#mff86e5d22a" x="149.546983" y="231.89854" style="fill: #d62728; fill-opacity: 0.7; stroke: #000000; stroke-opacity: 0.7; stroke-width: 0.5"/>
     <use xlink:href="#mff86e5d22a" x="177.228564" y="108.382824" style="fill: #d62728; fill-opacity: 0.7; stroke: #000000; stroke-opacity: 0.7; stroke-width: 0.5"/>
    </g>
   </g>
   <g id="PathCollection_8">
    <defs>
     <path id="m21f3e4003a" d="M -3.872983 3.872983 
L 3.872983 3.872983 
L 3.872983 -3.872983 
L -3.872983 -3.872983 
z
" style="stroke: #000000; stroke-opacity: 0.7; stroke-width: 0.5"/>
    </defs>
    <g clip-path="url(#p45540a2422)">
     <use xlink:href="#m21f3e4003a" x="104.373225" y="40805.317" style="fill: #2ca02c; fill-opacity: 0.7; stroke: #000000; stroke-opacity: 0.7; stroke-width: 0.5"/>
     <use xlink:href="#m21f3e4003a" x="104.373225" y="366.428187" style="fill: #2ca02c; fill-opacity: 0.7; stroke: #000000; stroke-opacity: 0.7; stroke-width: 0.5"/>
     <use xlink:href="#m21f3e4003a" x="104.373225" y="40805.317" style="fill: #2ca02c; fill-opacity: 0.7; stroke: #000000; stroke-opacity: 0.7; stroke-width: 0.5"/>
     <use xlink:href="#m21f3e4003a" x="111.015246" y="40805.317" style="fill: #2ca02c; fill-opacity: 0.7; stroke: #000000; stroke-opacity: 0.7; stroke-width: 0.5"/>
     <use xlink:href="#m21f3e4003a" x="111.015246" y="196.53457" style="fill: #2ca02c; fill-opacity: 0.7; stroke: #000000; stroke-opacity: 0.7; stroke-width: 0.5"/>
     <use xlink:href="#m21f3e4003a" x="111.015246" y="40805.317" style="fill: #2ca02c; fill-opacity: 0.7; stroke: #000000; stroke-opacity: 0.7; stroke-width: 0.5"/>
     <use xlink:href="#m21f3e4003a" x="685.515093" y="40805.317" style="fill: #2ca02c; fill-opacity: 0.7; stroke: #000000; stroke-opacity: 0.7; stroke-width: 0.5"/>
     <use xlink:href="#m21f3e4003a" x="685.515093" y="6937.653436" style="fill: #2ca02c; fill-opacity: 0.7; stroke: #000000; stroke-opacity: 0.7; stroke-width: 0.5"/>
     <use xlink:href="#m21f3e4003a" x="90.285915" y="4842.065491" style="fill: #2ca02c; fill-opacity: 0.7; stroke: #000000; stroke-opacity: 0.7; stroke-width: 0.5"/>
     <use xlink:href="#m21f3e4003a" x="98.003302" y="810.691048" style="fill: #2ca02c; fill-opacity: 0.7; stroke: #000000; stroke-opacity: 0.7; stroke-width: 0.5"/>
    </g>
   </g>
   <g id="PathCollection_9">
    <defs>
     <path id="mcb64b289af" d="M 0 -3.872983 
L -3.872983 3.872983 
L 3.872983 3.872983 
z
" style="stroke: #000000; stroke-opacity: 0.7; stroke-width: 0.5"/>
    </defs>
    <g clip-path="url(#p45540a2422)">
     <use xlink:href="#mcb64b289af" x="88.800065" y="40805.317" style="fill: #ff7f0e; fill-opacity: 0.7; stroke: #000000; stroke-opacity: 0.7; stroke-width: 0.5"/>
     <use xlink:href="#mcb64b289af" x="88.800065" y="29613.617041" style="fill: #ff7f0e; fill-opacity: 0.7; stroke: #000000; stroke-opacity: 0.7; stroke-width: 0.5"/>
     <use xlink:href="#mcb64b289af" x="97.082258" y="545.43105" style="fill: #ff7f0e; fill-opacity: 0.7; stroke: #000000; stroke-opacity: 0.7; stroke-width: 0.5"/>
     <use xlink:href="#mcb64b289af" x="107.09707" y="304.971826" style="fill: #ff7f0e; fill-opacity: 0.7; stroke: #000000; stroke-opacity: 0.7; stroke-width: 0.5"/>
     <use xlink:href="#mcb64b289af" x="149.7727" y="48.130725" style="fill: #ff7f0e; fill-opacity: 0.7; stroke: #000000; stroke-opacity: 0.7; stroke-width: 0.5"/>
     <use xlink:href="#mcb64b289af" x="159.889501" y="45.594119" style="fill: #ff7f0e; fill-opacity: 0.7; stroke: #000000; stroke-opacity: 0.7; stroke-width: 0.5"/>
    </g>
   </g>
   <g id="patch_3">
    <path d="M 52.079375 527.23475 
L 52.079375 39.51475 
" style="fill: none; stroke: #000000; stroke-width: 0.8; stroke-linejoin: miter; stroke-linecap: square"/>
   </g>
   <g id="patch_4">
    <path d="M 848.379375 527.23475 
L 848.379375 39.51475 
" style="fill: none; stroke: #000000; stroke-width: 0.8; stroke-linejoin: miter; stroke-linecap: square"/>
   </g>
   <g id="patch_5">
    <path d="M 52.079375 527.23475 
L 848.379375 527.23475 
" style="fill: none; stroke: #000000; stroke-width: 0.8; stroke-linejoin: miter; stroke-linecap: square"/>
   </g>
   <g id="patch_6">
    <path d="M 52.079375 39.51475 
L 848.379375 39.51475 
" style="fill: none; stroke: #000000; stroke-width: 0.8; stroke-linejoin: miter; stroke-linecap: square"/>
   </g>
   <g id="text_16">
    <g id="patch_7">
     <path d="M 115.155994 255.787971 
L 132.968494 255.787971 
Q 134.568494 255.787971 134.568494 254.187971 
L 134.568494 246.445471 
Q 134.568494 244.845471 132.968494 244.845471 
L 115.155994 244.845471 
Q 113.555994 244.845471 113.555994 246.445471 
L 113.555994 254.187971 
Q 113.555994 255.787971 115.155994 255.787971 
z
" style="fill: #ffffff; opacity: 0.7"/>
    </g>
    <!-- 0.05 -->
    <g style="fill: #d62728; opacity: 0.8" transform="translate(115.155994 252.524221) scale(0.08 -0.08)">
     <use xlink:href="#DejaVuSans-30"/>
     <use xlink:href="#DejaVuSans-2e" transform="translate(63.623047 0)"/>
     <use xlink:href="#DejaVuSans-30" transform="translate(95.410156 0)"/>
     <use xlink:href="#DejaVuSans-35" transform="translate(159.033203 0)"/>
    </g>
   </g>
   <g id="text_17">
    <g id="patch_8">
     <path d="M 167.549413 79.653146 
L 185.361913 79.653146 
Q 186.961913 79.653146 186.961913 78.053146 
L 186.961913 70.310646 
Q 186.961913 68.710646 185.361913 68.710646 
L 167.549413 68.710646 
Q 165.949413 68.710646 165.949413 70.310646 
L 165.949413 78.053146 
Q 165.949413 79.653146 167.549413 79.653146 
z
" style="fill: #ffffff; opacity: 0.7"/>
    </g>
    <!-- 0.01 -->
    <g style="fill: #d62728; opacity: 0.8" transform="translate(167.549413 76.389396) scale(0.08 -0.08)">
     <use xlink:href="#DejaVuSans-30"/>
     <use xlink:href="#DejaVuSans-2e" transform="translate(63.623047 0)"/>
     <use xlink:href="#DejaVuSans-30" transform="translate(95.410156 0)"/>
     <use xlink:href="#DejaVuSans-31" transform="translate(159.033203 0)"/>
    </g>
   </g>
   <g id="text_18">
    <g id="patch_9">
     <path d="M 198.510655 60.245934 
L 221.413155 60.245934 
Q 223.013155 60.245934 223.013155 58.645934 
L 223.013155 50.903434 
Q 223.013155 49.303434 221.413155 49.303434 
L 198.510655 49.303434 
Q 196.910655 49.303434 196.910655 50.903434 
L 196.910655 58.645934 
Q 196.910655 60.245934 198.510655 60.245934 
z
" style="fill: #ffffff; opacity: 0.7"/>
    </g>
    <!-- 0.005 -->
    <g style="fill: #d62728; opacity: 0.8" transform="translate(198.510655 56.982184) scale(0.08 -0.08)">
     <use xlink:href="#DejaVuSans-30"/>
     <use xlink:href="#DejaVuSans-2e" transform="translate(63.623047 0)"/>
     <use xlink:href="#DejaVuSans-30" transform="translate(95.410156 0)"/>
     <use xlink:href="#DejaVuSans-30" transform="translate(159.033203 0)"/>
     <use xlink:href="#DejaVuSans-35" transform="translate(222.65625 0)"/>
    </g>
   </g>
   <g id="text_19">
    <g id="patch_10">
     <path d="M 113.836824 120.455867 
L 136.739324 120.455867 
Q 138.339324 120.455867 138.339324 118.855867 
L 138.339324 111.113367 
Q 138.339324 109.513367 136.739324 109.513367 
L 113.836824 109.513367 
Q 112.236824 109.513367 112.236824 111.113367 
L 112.236824 118.855867 
Q 112.236824 120.455867 113.836824 120.455867 
z
" style="fill: #ffffff; opacity: 0.7"/>
    </g>
    <!-- 0.001 -->
    <g style="fill: #2ca02c; opacity: 0.8" transform="translate(113.836824 117.192117) scale(0.08 -0.08)">
     <use xlink:href="#DejaVuSans-30"/>
     <use xlink:href="#DejaVuSans-2e" transform="translate(63.623047 0)"/>
     <use xlink:href="#DejaVuSans-30" transform="translate(95.410156 0)"/>
     <use xlink:href="#DejaVuSans-30" transform="translate(159.033203 0)"/>
     <use xlink:href="#DejaVuSans-31" transform="translate(222.65625 0)"/>
    </g>
   </g>
   <g id="text_20">
    <g id="patch_11">
     <path d="M 122.865035 48.514454 
L 145.943785 48.514454 
Q 147.543785 48.514454 147.543785 46.914454 
L 147.543785 39.171954 
Q 147.543785 37.571954 145.943785 37.571954 
L 122.865035 37.571954 
Q 121.265035 37.571954 121.265035 39.171954 
L 121.265035 46.914454 
Q 121.265035 48.514454 122.865035 48.514454 
z
" style="fill: #ffffff; opacity: 0.7"/>
    </g>
    <!-- 5e-04 -->
    <g style="fill: #2ca02c; opacity: 0.8" transform="translate(122.865035 45.250704) scale(0.08 -0.08)">
     <defs>
      <path id="DejaVuSans-2d" d="M 313 2009 
L 1997 2009 
L 1997 1497 
L 313 1497 
L 313 2009 
z
" transform="scale(0.015625)"/>
     </defs>
     <use xlink:href="#DejaVuSans-35"/>
     <use xlink:href="#DejaVuSans-65" transform="translate(63.623047 0)"/>
     <use xlink:href="#DejaVuSans-2d" transform="translate(125.146484 0)"/>
     <use xlink:href="#DejaVuSans-30" transform="translate(161.230469 0)"/>
     <use xlink:href="#DejaVuSans-34" transform="translate(224.853516 0)"/>
    </g>
   </g>
   <g id="text_21">
    <g id="patch_12">
     <path d="M 136.939733 42.635618 
L 160.018483 42.635618 
Q 161.618483 42.635618 161.618483 41.035618 
L 161.618483 33.293118 
Q 161.618483 31.693118 160.018483 31.693118 
L 136.939733 31.693118 
Q 135.339733 31.693118 135.339733 33.293118 
L 135.339733 41.035618 
Q 135.339733 42.635618 136.939733 42.635618 
z
" style="fill: #ffffff; opacity: 0.7"/>
    </g>
    <!-- 1e-04 -->
    <g style="fill: #2ca02c; opacity: 0.8" transform="translate(136.939733 39.371868) scale(0.08 -0.08)">
     <use xlink:href="#DejaVuSans-31"/>
     <use xlink:href="#DejaVuSans-65" transform="translate(63.623047 0)"/>
     <use xlink:href="#DejaVuSans-2d" transform="translate(125.146484 0)"/>
     <use xlink:href="#DejaVuSans-30" transform="translate(161.230469 0)"/>
     <use xlink:href="#DejaVuSans-34" transform="translate(224.853516 0)"/>
    </g>
   </g>
   <g id="text_22">
    <g id="patch_13">
     <path d="M 145.163782 42.666847 
L 168.242532 42.666847 
Q 169.842532 42.666847 169.842532 41.066847 
L 169.842532 33.324347 
Q 169.842532 31.724347 168.242532 31.724347 
L 145.163782 31.724347 
Q 143.563782 31.724347 143.563782 33.324347 
L 143.563782 41.066847 
Q 143.563782 42.666847 145.163782 42.666847 
z
" style="fill: #ffffff; opacity: 0.7"/>
    </g>
    <!-- 5e-05 -->
    <g style="fill: #2ca02c; opacity: 0.8" transform="translate(145.163782 39.403097) scale(0.08 -0.08)">
     <use xlink:href="#DejaVuSans-35"/>
     <use xlink:href="#DejaVuSans-65" transform="translate(63.623047 0)"/>
     <use xlink:href="#DejaVuSans-2d" transform="translate(125.146484 0)"/>
     <use xlink:href="#DejaVuSans-30" transform="translate(161.230469 0)"/>
     <use xlink:href="#DejaVuSans-35" transform="translate(224.853516 0)"/>
    </g>
   </g>
   <g id="text_23">
    <g id="patch_14">
     <path d="M 198.163597 44.768405 
L 221.242347 44.768405 
Q 222.842347 44.768405 222.842347 43.168405 
L 222.842347 35.425905 
Q 222.842347 33.825905 221.242347 33.825905 
L 198.163597 33.825905 
Q 196.563597 33.825905 196.563597 35.425905 
L 196.563597 43.168405 
Q 196.563597 44.768405 198.163597 44.768405 
z
" style="fill: #ffffff; opacity: 0.7"/>
    </g>
    <!-- 1e-05 -->
    <g style="fill: #2ca02c; opacity: 0.8" transform="translate(198.163597 41.504655) scale(0.08 -0.08)">
     <use xlink:href="#DejaVuSans-31"/>
     <use xlink:href="#DejaVuSans-65" transform="translate(63.623047 0)"/>
     <use xlink:href="#DejaVuSans-2d" transform="translate(125.146484 0)"/>
     <use xlink:href="#DejaVuSans-30" transform="translate(161.230469 0)"/>
     <use xlink:href="#DejaVuSans-35" transform="translate(224.853516 0)"/>
    </g>
   </g>
   <g id="text_24">
    <g id="patch_15">
     <path d="M 117.670569 79.766405 
L 140.573069 79.766405 
Q 142.173069 79.766405 142.173069 78.166405 
L 142.173069 70.423905 
Q 142.173069 68.823905 140.573069 68.823905 
L 117.670569 68.823905 
Q 116.070569 68.823905 116.070569 70.423905 
L 116.070569 78.166405 
Q 116.070569 79.766405 117.670569 79.766405 
z
" style="fill: #ffffff; opacity: 0.7"/>
    </g>
    <!-- 0.001 -->
    <g style="fill: #2ca02c; opacity: 0.8" transform="translate(117.670569 76.502655) scale(0.08 -0.08)">
     <use xlink:href="#DejaVuSans-30"/>
     <use xlink:href="#DejaVuSans-2e" transform="translate(63.623047 0)"/>
     <use xlink:href="#DejaVuSans-30" transform="translate(95.410156 0)"/>
     <use xlink:href="#DejaVuSans-30" transform="translate(159.033203 0)"/>
     <use xlink:href="#DejaVuSans-31" transform="translate(222.65625 0)"/>
    </g>
   </g>
   <g id="text_25">
    <g id="patch_16">
     <path d="M 110.149901 124.478516 
L 133.052401 124.478516 
Q 134.652401 124.478516 134.652401 122.878516 
L 134.652401 115.136016 
Q 134.652401 113.536016 133.052401 113.536016 
L 110.149901 113.536016 
Q 108.549901 113.536016 108.549901 115.136016 
L 108.549901 122.878516 
Q 108.549901 124.478516 110.149901 124.478516 
z
" style="fill: #ffffff; opacity: 0.7"/>
    </g>
    <!-- 0.001 -->
    <g style="fill: #ff7f0e; opacity: 0.8" transform="translate(110.149901 121.214766) scale(0.08 -0.08)">
     <use xlink:href="#DejaVuSans-30"/>
     <use xlink:href="#DejaVuSans-2e" transform="translate(63.623047 0)"/>
     <use xlink:href="#DejaVuSans-30" transform="translate(95.410156 0)"/>
     <use xlink:href="#DejaVuSans-30" transform="translate(159.033203 0)"/>
     <use xlink:href="#DejaVuSans-31" transform="translate(222.65625 0)"/>
    </g>
   </g>
   <g id="text_26">
    <g id="patch_17">
     <path d="M 126.481387 66.311569 
L 149.560137 66.311569 
Q 151.160137 66.311569 151.160137 64.711569 
L 151.160137 56.969069 
Q 151.160137 55.369069 149.560137 55.369069 
L 126.481387 55.369069 
Q 124.881387 55.369069 124.881387 56.969069 
L 124.881387 64.711569 
Q 124.881387 66.311569 126.481387 66.311569 
z
" style="fill: #ffffff; opacity: 0.7"/>
    </g>
    <!-- 5e-04 -->
    <g style="fill: #ff7f0e; opacity: 0.8" transform="translate(126.481387 63.047819) scale(0.08 -0.08)">
     <use xlink:href="#DejaVuSans-35"/>
     <use xlink:href="#DejaVuSans-65" transform="translate(63.623047 0)"/>
     <use xlink:href="#DejaVuSans-2d" transform="translate(125.146484 0)"/>
     <use xlink:href="#DejaVuSans-30" transform="translate(161.230469 0)"/>
     <use xlink:href="#DejaVuSans-34" transform="translate(224.853516 0)"/>
    </g>
   </g>
   <g id="text_27">
    <g id="patch_18">
     <path d="M 160.456986 44.1893 
L 183.535736 44.1893 
Q 185.135736 44.1893 185.135736 42.5893 
L 185.135736 34.8468 
Q 185.135736 33.2468 183.535736 33.2468 
L 160.456986 33.2468 
Q 158.856986 33.2468 158.856986 34.8468 
L 158.856986 42.5893 
Q 158.856986 44.1893 160.456986 44.1893 
z
" style="fill: #ffffff; opacity: 0.7"/>
    </g>
    <!-- 1e-04 -->
    <g style="fill: #ff7f0e; opacity: 0.8" transform="translate(160.456986 40.92555) scale(0.08 -0.08)">
     <use xlink:href="#DejaVuSans-31"/>
     <use xlink:href="#DejaVuSans-65" transform="translate(63.623047 0)"/>
     <use xlink:href="#DejaVuSans-2d" transform="translate(125.146484 0)"/>
     <use xlink:href="#DejaVuSans-30" transform="translate(161.230469 0)"/>
     <use xlink:href="#DejaVuSans-34" transform="translate(224.853516 0)"/>
    </g>
   </g>
   <g id="text_28">
    <g id="patch_19">
     <path d="M 165.128606 46.579979 
L 188.207356 46.579979 
Q 189.807356 46.579979 189.807356 44.979979 
L 189.807356 37.237479 
Q 189.807356 35.637479 188.207356 35.637479 
L 165.128606 35.637479 
Q 163.528606 35.637479 163.528606 37.237479 
L 163.528606 44.979979 
Q 163.528606 46.579979 165.128606 46.579979 
z
" style="fill: #ffffff; opacity: 0.7"/>
    </g>
    <!-- 5e-05 -->
    <g style="fill: #ff7f0e; opacity: 0.8" transform="translate(165.128606 43.316229) scale(0.08 -0.08)">
     <use xlink:href="#DejaVuSans-35"/>
     <use xlink:href="#DejaVuSans-65" transform="translate(63.623047 0)"/>
     <use xlink:href="#DejaVuSans-2d" transform="translate(125.146484 0)"/>
     <use xlink:href="#DejaVuSans-30" transform="translate(161.230469 0)"/>
     <use xlink:href="#DejaVuSans-35" transform="translate(224.853516 0)"/>
    </g>
   </g>
   <g id="text_29">
    <g id="patch_20">
     <path d="M 176.36055 169.171343 
L 194.17305 169.171343 
Q 195.77305 169.171343 195.77305 167.571343 
L 195.77305 159.828843 
Q 195.77305 158.228843 194.17305 158.228843 
L 176.36055 158.228843 
Q 174.76055 158.228843 174.76055 159.828843 
L 174.76055 167.571343 
Q 174.76055 169.171343 176.36055 169.171343 
z
" style="fill: #ffffff; opacity: 0.7"/>
    </g>
    <!-- 0.01 -->
    <g style="fill: #d62728; opacity: 0.8" transform="translate(176.36055 165.907593) scale(0.08 -0.08)">
     <use xlink:href="#DejaVuSans-30"/>
     <use xlink:href="#DejaVuSans-2e" transform="translate(63.623047 0)"/>
     <use xlink:href="#DejaVuSans-30" transform="translate(95.410156 0)"/>
     <use xlink:href="#DejaVuSans-31" transform="translate(159.033203 0)"/>
    </g>
   </g>
   <g id="text_30">
    <g id="patch_21">
     <path d="M 204.389894 84.5646 
L 227.292394 84.5646 
Q 228.892394 84.5646 228.892394 82.9646 
L 228.892394 75.2221 
Q 228.892394 73.6221 227.292394 73.6221 
L 204.389894 73.6221 
Q 202.789894 73.6221 202.789894 75.2221 
L 202.789894 82.9646 
Q 202.789894 84.5646 204.389894 84.5646 
z
" style="fill: #ffffff; opacity: 0.7"/>
    </g>
    <!-- 0.005 -->
    <g style="fill: #d62728; opacity: 0.8" transform="translate(204.389894 81.30085) scale(0.08 -0.08)">
     <use xlink:href="#DejaVuSans-30"/>
     <use xlink:href="#DejaVuSans-2e" transform="translate(63.623047 0)"/>
     <use xlink:href="#DejaVuSans-30" transform="translate(95.410156 0)"/>
     <use xlink:href="#DejaVuSans-30" transform="translate(159.033203 0)"/>
     <use xlink:href="#DejaVuSans-35" transform="translate(222.65625 0)"/>
    </g>
   </g>
   <g id="text_31">
    <g id="patch_22">
     <path d="M 122.351942 73.545488 
L 145.430692 73.545488 
Q 147.030692 73.545488 147.030692 71.945488 
L 147.030692 64.202988 
Q 147.030692 62.602988 145.430692 62.602988 
L 122.351942 62.602988 
Q 120.751942 62.602988 120.751942 64.202988 
L 120.751942 71.945488 
Q 120.751942 73.545488 122.351942 73.545488 
z
" style="fill: #ffffff; opacity: 0.7"/>
    </g>
    <!-- 1e-04 -->
    <g style="fill: #2ca02c; opacity: 0.8" transform="translate(122.351942 70.281738) scale(0.08 -0.08)">
     <use xlink:href="#DejaVuSans-31"/>
     <use xlink:href="#DejaVuSans-65" transform="translate(63.623047 0)"/>
     <use xlink:href="#DejaVuSans-2d" transform="translate(125.146484 0)"/>
     <use xlink:href="#DejaVuSans-30" transform="translate(161.230469 0)"/>
     <use xlink:href="#DejaVuSans-34" transform="translate(224.853516 0)"/>
    </g>
   </g>
   <g id="text_32">
    <g id="patch_23">
     <path d="M 143.593266 45.788315 
L 166.672016 45.788315 
Q 168.272016 45.788315 168.272016 44.188315 
L 168.272016 36.445815 
Q 168.272016 34.845815 166.672016 34.845815 
L 143.593266 34.845815 
Q 141.993266 34.845815 141.993266 36.445815 
L 141.993266 44.188315 
Q 141.993266 45.788315 143.593266 45.788315 
z
" style="fill: #ffffff; opacity: 0.7"/>
    </g>
    <!-- 5e-05 -->
    <g style="fill: #2ca02c; opacity: 0.8" transform="translate(143.593266 42.524565) scale(0.08 -0.08)">
     <use xlink:href="#DejaVuSans-35"/>
     <use xlink:href="#DejaVuSans-65" transform="translate(63.623047 0)"/>
     <use xlink:href="#DejaVuSans-2d" transform="translate(125.146484 0)"/>
     <use xlink:href="#DejaVuSans-30" transform="translate(161.230469 0)"/>
     <use xlink:href="#DejaVuSans-35" transform="translate(224.853516 0)"/>
    </g>
   </g>
   <g id="text_33">
    <g id="patch_24">
     <path d="M 111.629933 362.303417 
L 134.532433 362.303417 
Q 136.132433 362.303417 136.132433 360.703417 
L 136.132433 352.960917 
Q 136.132433 351.360917 134.532433 351.360917 
L 111.629933 351.360917 
Q 110.029933 351.360917 110.029933 352.960917 
L 110.029933 360.703417 
Q 110.029933 362.303417 111.629933 362.303417 
z
" style="fill: #ffffff; opacity: 0.7"/>
    </g>
    <!-- 0.001 -->
    <g style="fill: #2ca02c; opacity: 0.8" transform="translate(111.629933 359.039667) scale(0.08 -0.08)">
     <use xlink:href="#DejaVuSans-30"/>
     <use xlink:href="#DejaVuSans-2e" transform="translate(63.623047 0)"/>
     <use xlink:href="#DejaVuSans-30" transform="translate(95.410156 0)"/>
     <use xlink:href="#DejaVuSans-30" transform="translate(159.033203 0)"/>
     <use xlink:href="#DejaVuSans-31" transform="translate(222.65625 0)"/>
    </g>
   </g>
   <g id="text_34">
    <g id="patch_25">
     <path d="M 105.626527 410.126778 
L 128.529027 410.126778 
Q 130.129027 410.126778 130.129027 408.526778 
L 130.129027 400.784278 
Q 130.129027 399.184278 128.529027 399.184278 
L 105.626527 399.184278 
Q 104.026527 399.184278 104.026527 400.784278 
L 104.026527 408.526778 
Q 104.026527 410.126778 105.626527 410.126778 
z
" style="fill: #ffffff; opacity: 0.7"/>
    </g>
    <!-- 0.001 -->
    <g style="fill: #ff7f0e; opacity: 0.8" transform="translate(105.626527 406.863028) scale(0.08 -0.08)">
     <use xlink:href="#DejaVuSans-30"/>
     <use xlink:href="#DejaVuSans-2e" transform="translate(63.623047 0)"/>
     <use xlink:href="#DejaVuSans-30" transform="translate(95.410156 0)"/>
     <use xlink:href="#DejaVuSans-30" transform="translate(159.033203 0)"/>
     <use xlink:href="#DejaVuSans-31" transform="translate(222.65625 0)"/>
    </g>
   </g>
   <g id="text_35">
    <g id="patch_26">
     <path d="M 116.394924 235.876922 
L 139.473674 235.876922 
Q 141.073674 235.876922 141.073674 234.276922 
L 141.073674 226.534422 
Q 141.073674 224.934422 139.473674 224.934422 
L 116.394924 224.934422 
Q 114.794924 224.934422 114.794924 226.534422 
L 114.794924 234.276922 
Q 114.794924 235.876922 116.394924 235.876922 
z
" style="fill: #ffffff; opacity: 0.7"/>
    </g>
    <!-- 5e-04 -->
    <g style="fill: #ff7f0e; opacity: 0.8" transform="translate(116.394924 232.613172) scale(0.08 -0.08)">
     <use xlink:href="#DejaVuSans-35"/>
     <use xlink:href="#DejaVuSans-65" transform="translate(63.623047 0)"/>
     <use xlink:href="#DejaVuSans-2d" transform="translate(125.146484 0)"/>
     <use xlink:href="#DejaVuSans-30" transform="translate(161.230469 0)"/>
     <use xlink:href="#DejaVuSans-34" transform="translate(224.853516 0)"/>
    </g>
   </g>
   <g id="text_36">
    <g id="patch_27">
     <path d="M 159.831132 47.360993 
L 182.909882 47.360993 
Q 184.509882 47.360993 184.509882 45.760993 
L 184.509882 38.018493 
Q 184.509882 36.418493 182.909882 36.418493 
L 159.831132 36.418493 
Q 158.231132 36.418493 158.231132 38.018493 
L 158.231132 45.760993 
Q 158.231132 47.360993 159.831132 47.360993 
z
" style="fill: #ffffff; opacity: 0.7"/>
    </g>
    <!-- 1e-04 -->
    <g style="fill: #ff7f0e; opacity: 0.8" transform="translate(159.831132 44.097243) scale(0.08 -0.08)">
     <use xlink:href="#DejaVuSans-31"/>
     <use xlink:href="#DejaVuSans-65" transform="translate(63.623047 0)"/>
     <use xlink:href="#DejaVuSans-2d" transform="translate(125.146484 0)"/>
     <use xlink:href="#DejaVuSans-30" transform="translate(161.230469 0)"/>
     <use xlink:href="#DejaVuSans-34" transform="translate(224.853516 0)"/>
    </g>
   </g>
   <g id="text_37">
    <g id="patch_28">
     <path d="M 159.388031 42.85638 
L 182.466781 42.85638 
Q 184.066781 42.85638 184.066781 41.25638 
L 184.066781 33.51388 
Q 184.066781 31.91388 182.466781 31.91388 
L 159.388031 31.91388 
Q 157.788031 31.91388 157.788031 33.51388 
L 157.788031 41.25638 
Q 157.788031 42.85638 159.388031 42.85638 
z
" style="fill: #ffffff; opacity: 0.7"/>
    </g>
    <!-- 5e-05 -->
    <g style="fill: #ff7f0e; opacity: 0.8" transform="translate(159.388031 39.59263) scale(0.08 -0.08)">
     <use xlink:href="#DejaVuSans-35"/>
     <use xlink:href="#DejaVuSans-65" transform="translate(63.623047 0)"/>
     <use xlink:href="#DejaVuSans-2d" transform="translate(125.146484 0)"/>
     <use xlink:href="#DejaVuSans-30" transform="translate(161.230469 0)"/>
     <use xlink:href="#DejaVuSans-35" transform="translate(224.853516 0)"/>
    </g>
   </g>
   <g id="text_38">
    <g id="patch_29">
     <path d="M 154.546983 230.16229 
L 172.359483 230.16229 
Q 173.959483 230.16229 173.959483 228.56229 
L 173.959483 220.81979 
Q 173.959483 219.21979 172.359483 219.21979 
L 154.546983 219.21979 
Q 152.946983 219.21979 152.946983 220.81979 
L 152.946983 228.56229 
Q 152.946983 230.16229 154.546983 230.16229 
z
" style="fill: #ffffff; opacity: 0.7"/>
    </g>
    <!-- 0.01 -->
    <g style="fill: #d62728; opacity: 0.8" transform="translate(154.546983 226.89854) scale(0.08 -0.08)">
     <use xlink:href="#DejaVuSans-30"/>
     <use xlink:href="#DejaVuSans-2e" transform="translate(63.623047 0)"/>
     <use xlink:href="#DejaVuSans-30" transform="translate(95.410156 0)"/>
     <use xlink:href="#DejaVuSans-31" transform="translate(159.033203 0)"/>
    </g>
   </g>
   <g id="text_39">
    <g id="patch_30">
     <path d="M 182.228564 106.646574 
L 205.131064 106.646574 
Q 206.731064 106.646574 206.731064 105.046574 
L 206.731064 97.304074 
Q 206.731064 95.704074 205.131064 95.704074 
L 182.228564 95.704074 
Q 180.628564 95.704074 180.628564 97.304074 
L 180.628564 105.046574 
Q 180.628564 106.646574 182.228564 106.646574 
z
" style="fill: #ffffff; opacity: 0.7"/>
    </g>
    <!-- 0.005 -->
    <g style="fill: #d62728; opacity: 0.8" transform="translate(182.228564 103.382824) scale(0.08 -0.08)">
     <use xlink:href="#DejaVuSans-30"/>
     <use xlink:href="#DejaVuSans-2e" transform="translate(63.623047 0)"/>
     <use xlink:href="#DejaVuSans-30" transform="translate(95.410156 0)"/>
     <use xlink:href="#DejaVuSans-30" transform="translate(159.033203 0)"/>
     <use xlink:href="#DejaVuSans-35" transform="translate(222.65625 0)"/>
    </g>
   </g>
   <g id="text_40">
    <g id="patch_31">
     <path d="M 109.373225 364.691937 
L 132.451975 364.691937 
Q 134.051975 364.691937 134.051975 363.091937 
L 134.051975 355.349437 
Q 134.051975 353.749437 132.451975 353.749437 
L 109.373225 353.749437 
Q 107.773225 353.749437 107.773225 355.349437 
L 107.773225 363.091937 
Q 107.773225 364.691937 109.373225 364.691937 
z
" style="fill: #ffffff; opacity: 0.7"/>
    </g>
    <!-- 1e-04 -->
    <g style="fill: #2ca02c; opacity: 0.8" transform="translate(109.373225 361.428187) scale(0.08 -0.08)">
     <use xlink:href="#DejaVuSans-31"/>
     <use xlink:href="#DejaVuSans-65" transform="translate(63.623047 0)"/>
     <use xlink:href="#DejaVuSans-2d" transform="translate(125.146484 0)"/>
     <use xlink:href="#DejaVuSans-30" transform="translate(161.230469 0)"/>
     <use xlink:href="#DejaVuSans-34" transform="translate(224.853516 0)"/>
    </g>
   </g>
   <g id="text_41">
    <g id="patch_32">
     <path d="M 116.015246 194.79832 
L 139.093996 194.79832 
Q 140.693996 194.79832 140.693996 193.19832 
L 140.693996 185.45582 
Q 140.693996 183.85582 139.093996 183.85582 
L 116.015246 183.85582 
Q 114.415246 183.85582 114.415246 185.45582 
L 114.415246 193.19832 
Q 114.415246 194.79832 116.015246 194.79832 
z
" style="fill: #ffffff; opacity: 0.7"/>
    </g>
    <!-- 5e-05 -->
    <g style="fill: #2ca02c; opacity: 0.8" transform="translate(116.015246 191.53457) scale(0.08 -0.08)">
     <use xlink:href="#DejaVuSans-35"/>
     <use xlink:href="#DejaVuSans-65" transform="translate(63.623047 0)"/>
     <use xlink:href="#DejaVuSans-2d" transform="translate(125.146484 0)"/>
     <use xlink:href="#DejaVuSans-30" transform="translate(161.230469 0)"/>
     <use xlink:href="#DejaVuSans-35" transform="translate(224.853516 0)"/>
    </g>
   </g>
   <g id="text_42">
    <g id="patch_33">
     <path d="M 112.09707 303.235576 
L 135.17582 303.235576 
Q 136.77582 303.235576 136.77582 301.635576 
L 136.77582 293.893076 
Q 136.77582 292.293076 135.17582 292.293076 
L 112.09707 292.293076 
Q 110.49707 292.293076 110.49707 293.893076 
L 110.49707 301.635576 
Q 110.49707 303.235576 112.09707 303.235576 
z
" style="fill: #ffffff; opacity: 0.7"/>
    </g>
    <!-- 5e-04 -->
    <g style="fill: #ff7f0e; opacity: 0.8" transform="translate(112.09707 299.971826) scale(0.08 -0.08)">
     <use xlink:href="#DejaVuSans-35"/>
     <use xlink:href="#DejaVuSans-65" transform="translate(63.623047 0)"/>
     <use xlink:href="#DejaVuSans-2d" transform="translate(125.146484 0)"/>
     <use xlink:href="#DejaVuSans-30" transform="translate(161.230469 0)"/>
     <use xlink:href="#DejaVuSans-34" transform="translate(224.853516 0)"/>
    </g>
   </g>
   <g id="text_43">
    <g id="patch_34">
     <path d="M 154.7727 46.394475 
L 177.85145 46.394475 
Q 179.45145 46.394475 179.45145 44.794475 
L 179.45145 37.051975 
Q 179.45145 35.451975 177.85145 35.451975 
L 154.7727 35.451975 
Q 153.1727 35.451975 153.1727 37.051975 
L 153.1727 44.794475 
Q 153.1727 46.394475 154.7727 46.394475 
z
" style="fill: #ffffff; opacity: 0.7"/>
    </g>
    <!-- 1e-04 -->
    <g style="fill: #ff7f0e; opacity: 0.8" transform="translate(154.7727 43.130725) scale(0.08 -0.08)">
     <use xlink:href="#DejaVuSans-31"/>
     <use xlink:href="#DejaVuSans-65" transform="translate(63.623047 0)"/>
     <use xlink:href="#DejaVuSans-2d" transform="translate(125.146484 0)"/>
     <use xlink:href="#DejaVuSans-30" transform="translate(161.230469 0)"/>
     <use xlink:href="#DejaVuSans-34" transform="translate(224.853516 0)"/>
    </g>
   </g>
   <g id="text_44">
    <g id="patch_35">
     <path d="M 164.889501 43.857869 
L 187.968251 43.857869 
Q 189.568251 43.857869 189.568251 42.257869 
L 189.568251 34.515369 
Q 189.568251 32.915369 187.968251 32.915369 
L 164.889501 32.915369 
Q 163.289501 32.915369 163.289501 34.515369 
L 163.289501 42.257869 
Q 163.289501 43.857869 164.889501 43.857869 
z
" style="fill: #ffffff; opacity: 0.7"/>
    </g>
    <!-- 5e-05 -->
    <g style="fill: #ff7f0e; opacity: 0.8" transform="translate(164.889501 40.594119) scale(0.08 -0.08)">
     <use xlink:href="#DejaVuSans-35"/>
     <use xlink:href="#DejaVuSans-65" transform="translate(63.623047 0)"/>
     <use xlink:href="#DejaVuSans-2d" transform="translate(125.146484 0)"/>
     <use xlink:href="#DejaVuSans-30" transform="translate(161.230469 0)"/>
     <use xlink:href="#DejaVuSans-35" transform="translate(224.853516 0)"/>
    </g>
   </g>
   <g id="text_45">
    <!-- Sparsity vs Explained Variance Trade-off -->
    <g transform="translate(309.360938 17.837812) scale(0.14 -0.14)">
     <defs>
      <path id="DejaVuSans-76" d="M 191 3500 
L 800 3500 
L 1894 563 
L 2988 3500 
L 3597 3500 
L 2284 0 
L 1503 0 
L 191 3500 
z
" transform="scale(0.015625)"/>
      <path id="DejaVuSans-54" d="M -19 4666 
L 3928 4666 
L 3928 4134 
L 2272 4134 
L 2272 0 
L 1638 0 
L 1638 4134 
L -19 4134 
L -19 4666 
z
" transform="scale(0.015625)"/>
      <path id="DejaVuSans-6f" d="M 1959 3097 
Q 1497 3097 1228 2736 
Q 959 2375 959 1747 
Q 959 1119 1226 758 
Q 1494 397 1959 397 
Q 2419 397 2687 759 
Q 2956 1122 2956 1747 
Q 2956 2369 2687 2733 
Q 2419 3097 1959 3097 
z
M 1959 3584 
Q 2709 3584 3137 3096 
Q 3566 2609 3566 1747 
Q 3566 888 3137 398 
Q 2709 -91 1959 -91 
Q 1206 -91 779 398 
Q 353 888 353 1747 
Q 353 2609 779 3096 
Q 1206 3584 1959 3584 
z
" transform="scale(0.015625)"/>
      <path id="DejaVuSans-66" d="M 2375 4863 
L 2375 4384 
L 1825 4384 
Q 1516 4384 1395 4259 
Q 1275 4134 1275 3809 
L 1275 3500 
L 2222 3500 
L 2222 3053 
L 1275 3053 
L 1275 0 
L 697 0 
L 697 3053 
L 147 3053 
L 147 3500 
L 697 3500 
L 697 3744 
Q 697 4328 969 4595 
Q 1241 4863 1831 4863 
L 2375 4863 
z
" transform="scale(0.015625)"/>
     </defs>
     <use xlink:href="#DejaVuSans-53"/>
     <use xlink:href="#DejaVuSans-70" transform="translate(63.476562 0)"/>
     <use xlink:href="#DejaVuSans-61" transform="translate(126.953125 0)"/>
     <use xlink:href="#DejaVuSans-72" transform="translate(188.232422 0)"/>
     <use xlink:href="#DejaVuSans-73" transform="translate(229.345703 0)"/>
     <use xlink:href="#DejaVuSans-69" transform="translate(281.445312 0)"/>
     <use xlink:href="#DejaVuSans-74" transform="translate(309.228516 0)"/>
     <use xlink:href="#DejaVuSans-79" transform="translate(348.4375 0)"/>
     <use xlink:href="#DejaVuSans-20" transform="translate(407.617188 0)"/>
     <use xlink:href="#DejaVuSans-76" transform="translate(439.404297 0)"/>
     <use xlink:href="#DejaVuSans-73" transform="translate(498.583984 0)"/>
     <use xlink:href="#DejaVuSans-20" transform="translate(550.683594 0)"/>
     <use xlink:href="#DejaVuSans-45" transform="translate(582.470703 0)"/>
     <use xlink:href="#DejaVuSans-78" transform="translate(645.654297 0)"/>
     <use xlink:href="#DejaVuSans-70" transform="translate(704.833984 0)"/>
     <use xlink:href="#DejaVuSans-6c" transform="translate(768.310547 0)"/>
     <use xlink:href="#DejaVuSans-61" transform="translate(796.09375 0)"/>
     <use xlink:href="#DejaVuSans-69" transform="translate(857.373047 0)"/>
     <use xlink:href="#DejaVuSans-6e" transform="translate(885.15625 0)"/>
     <use xlink:href="#DejaVuSans-65" transform="translate(948.535156 0)"/>
     <use xlink:href="#DejaVuSans-64" transform="translate(1010.058594 0)"/>
     <use xlink:href="#DejaVuSans-20" transform="translate(1073.535156 0)"/>
     <use xlink:href="#DejaVuSans-56" transform="translate(1105.322266 0)"/>
     <use xlink:href="#DejaVuSans-61" transform="translate(1165.980469 0)"/>
     <use xlink:href="#DejaVuSans-72" transform="translate(1227.259766 0)"/>
     <use xlink:href="#DejaVuSans-69" transform="translate(1268.373047 0)"/>
     <use xlink:href="#DejaVuSans-61" transform="translate(1296.15625 0)"/>
     <use xlink:href="#DejaVuSans-6e" transform="translate(1357.435547 0)"/>
     <use xlink:href="#DejaVuSans-63" transform="translate(1420.814453 0)"/>
     <use xlink:href="#DejaVuSans-65" transform="translate(1475.794922 0)"/>
     <use xlink:href="#DejaVuSans-20" transform="translate(1537.318359 0)"/>
     <use xlink:href="#DejaVuSans-54" transform="translate(1569.105469 0)"/>
     <use xlink:href="#DejaVuSans-72" transform="translate(1615.439453 0)"/>
     <use xlink:href="#DejaVuSans-61" transform="translate(1656.552734 0)"/>
     <use xlink:href="#DejaVuSans-64" transform="translate(1717.832031 0)"/>
     <use xlink:href="#DejaVuSans-65" transform="translate(1781.308594 0)"/>
     <use xlink:href="#DejaVuSans-2d" transform="translate(1842.832031 0)"/>
     <use xlink:href="#DejaVuSans-6f" transform="translate(1880.791016 0)"/>
     <use xlink:href="#DejaVuSans-66" transform="translate(1941.972656 0)"/>
     <use xlink:href="#DejaVuSans-66" transform="translate(1977.177734 0)"/>
    </g>
    <!-- (5 SAE Architectures: ReLU, HardConcrete, HardConcrete (IIG), Gated, GatedHardConcrete) -->
    <g transform="translate(131.151875 33.51475) scale(0.14 -0.14)">
     <defs>
      <path id="DejaVuSans-41" d="M 2188 4044 
L 1331 1722 
L 3047 1722 
L 2188 4044 
z
M 1831 4666 
L 2547 4666 
L 4325 0 
L 3669 0 
L 3244 1197 
L 1141 1197 
L 716 0 
L 50 0 
L 1831 4666 
z
" transform="scale(0.015625)"/>
      <path id="DejaVuSans-68" d="M 3513 2113 
L 3513 0 
L 2938 0 
L 2938 2094 
Q 2938 2591 2744 2837 
Q 2550 3084 2163 3084 
Q 1697 3084 1428 2787 
Q 1159 2491 1159 1978 
L 1159 0 
L 581 0 
L 581 4863 
L 1159 4863 
L 1159 2956 
Q 1366 3272 1645 3428 
Q 1925 3584 2291 3584 
Q 2894 3584 3203 3211 
Q 3513 2838 3513 2113 
z
" transform="scale(0.015625)"/>
      <path id="DejaVuSans-75" d="M 544 1381 
L 544 3500 
L 1119 3500 
L 1119 1403 
Q 1119 906 1312 657 
Q 1506 409 1894 409 
Q 2359 409 2629 706 
Q 2900 1003 2900 1516 
L 2900 3500 
L 3475 3500 
L 3475 0 
L 2900 0 
L 2900 538 
Q 2691 219 2414 64 
Q 2138 -91 1772 -91 
Q 1169 -91 856 284 
Q 544 659 544 1381 
z
M 1991 3584 
L 1991 3584 
z
" transform="scale(0.015625)"/>
      <path id="DejaVuSans-3a" d="M 750 794 
L 1409 794 
L 1409 0 
L 750 0 
L 750 794 
z
M 750 3309 
L 1409 3309 
L 1409 2516 
L 750 2516 
L 750 3309 
z
" transform="scale(0.015625)"/>
      <path id="DejaVuSans-52" d="M 2841 2188 
Q 3044 2119 3236 1894 
Q 3428 1669 3622 1275 
L 4263 0 
L 3584 0 
L 2988 1197 
Q 2756 1666 2539 1819 
Q 2322 1972 1947 1972 
L 1259 1972 
L 1259 0 
L 628 0 
L 628 4666 
L 2053 4666 
Q 2853 4666 3247 4331 
Q 3641 3997 3641 3322 
Q 3641 2881 3436 2590 
Q 3231 2300 2841 2188 
z
M 1259 4147 
L 1259 2491 
L 2053 2491 
Q 2509 2491 2742 2702 
Q 2975 2913 2975 3322 
Q 2975 3731 2742 3939 
Q 2509 4147 2053 4147 
L 1259 4147 
z
" transform="scale(0.015625)"/>
      <path id="DejaVuSans-55" d="M 556 4666 
L 1191 4666 
L 1191 1831 
Q 1191 1081 1462 751 
Q 1734 422 2344 422 
Q 2950 422 3222 751 
Q 3494 1081 3494 1831 
L 3494 4666 
L 4128 4666 
L 4128 1753 
Q 4128 841 3676 375 
Q 3225 -91 2344 -91 
Q 1459 -91 1007 375 
Q 556 841 556 1753 
L 556 4666 
z
" transform="scale(0.015625)"/>
      <path id="DejaVuSans-2c" d="M 750 794 
L 1409 794 
L 1409 256 
L 897 -744 
L 494 -744 
L 750 256 
L 750 794 
z
" transform="scale(0.015625)"/>
      <path id="DejaVuSans-48" d="M 628 4666 
L 1259 4666 
L 1259 2753 
L 3553 2753 
L 3553 4666 
L 4184 4666 
L 4184 0 
L 3553 0 
L 3553 2222 
L 1259 2222 
L 1259 0 
L 628 0 
L 628 4666 
z
" transform="scale(0.015625)"/>
      <path id="DejaVuSans-43" d="M 4122 4306 
L 4122 3641 
Q 3803 3938 3442 4084 
Q 3081 4231 2675 4231 
Q 1875 4231 1450 3742 
Q 1025 3253 1025 2328 
Q 1025 1406 1450 917 
Q 1875 428 2675 428 
Q 3081 428 3442 575 
Q 3803 722 4122 1019 
L 4122 359 
Q 3791 134 3420 21 
Q 3050 -91 2638 -91 
Q 1578 -91 968 557 
Q 359 1206 359 2328 
Q 359 3453 968 4101 
Q 1578 4750 2638 4750 
Q 3056 4750 3426 4639 
Q 3797 4528 4122 4306 
z
" transform="scale(0.015625)"/>
      <path id="DejaVuSans-49" d="M 628 4666 
L 1259 4666 
L 1259 0 
L 628 0 
L 628 4666 
z
" transform="scale(0.015625)"/>
      <path id="DejaVuSans-47" d="M 3809 666 
L 3809 1919 
L 2778 1919 
L 2778 2438 
L 4434 2438 
L 4434 434 
Q 4069 175 3628 42 
Q 3188 -91 2688 -91 
Q 1594 -91 976 548 
Q 359 1188 359 2328 
Q 359 3472 976 4111 
Q 1594 4750 2688 4750 
Q 3144 4750 3555 4637 
Q 3966 4525 4313 4306 
L 4313 3634 
Q 3963 3931 3569 4081 
Q 3175 4231 2741 4231 
Q 1884 4231 1454 3753 
Q 1025 3275 1025 2328 
Q 1025 1384 1454 906 
Q 1884 428 2741 428 
Q 3075 428 3337 486 
Q 3600 544 3809 666 
z
" transform="scale(0.015625)"/>
     </defs>
     <use xlink:href="#DejaVuSans-28"/>
     <use xlink:href="#DejaVuSans-35" transform="translate(39.013672 0)"/>
     <use xlink:href="#DejaVuSans-20" transform="translate(102.636719 0)"/>
     <use xlink:href="#DejaVuSans-53" transform="translate(134.423828 0)"/>
     <use xlink:href="#DejaVuSans-41" transform="translate(199.775391 0)"/>
     <use xlink:href="#DejaVuSans-45" transform="translate(268.183594 0)"/>
     <use xlink:href="#DejaVuSans-20" transform="translate(331.367188 0)"/>
     <use xlink:href="#DejaVuSans-41" transform="translate(363.154297 0)"/>
     <use xlink:href="#DejaVuSans-72" transform="translate(431.5625 0)"/>
     <use xlink:href="#DejaVuSans-63" transform="translate(470.425781 0)"/>
     <use xlink:href="#DejaVuSans-68" transform="translate(525.40625 0)"/>
     <use xlink:href="#DejaVuSans-69" transform="translate(588.785156 0)"/>
     <use xlink:href="#DejaVuSans-74" transform="translate(616.568359 0)"/>
     <use xlink:href="#DejaVuSans-65" transform="translate(655.777344 0)"/>
     <use xlink:href="#DejaVuSans-63" transform="translate(717.300781 0)"/>
     <use xlink:href="#DejaVuSans-74" transform="translate(772.28125 0)"/>
     <use xlink:href="#DejaVuSans-75" transform="translate(811.490234 0)"/>
     <use xlink:href="#DejaVuSans-72" transform="translate(874.869141 0)"/>
     <use xlink:href="#DejaVuSans-65" transform="translate(913.732422 0)"/>
     <use xlink:href="#DejaVuSans-73" transform="translate(975.255859 0)"/>
     <use xlink:href="#DejaVuSans-3a" transform="translate(1027.355469 0)"/>
     <use xlink:href="#DejaVuSans-20" transform="translate(1061.046875 0)"/>
     <use xlink:href="#DejaVuSans-52" transform="translate(1092.833984 0)"/>
     <use xlink:href="#DejaVuSans-65" transform="translate(1157.816406 0)"/>
     <use xlink:href="#DejaVuSans-4c" transform="translate(1219.339844 0)"/>
     <use xlink:href="#DejaVuSans-55" transform="translate(1270.052734 0)"/>
     <use xlink:href="#DejaVuSans-2c" transform="translate(1343.246094 0)"/>
     <use xlink:href="#DejaVuSans-20" transform="translate(1375.033203 0)"/>
     <use xlink:href="#DejaVuSans-48" transform="translate(1406.820312 0)"/>
     <use xlink:href="#DejaVuSans-61" transform="translate(1482.015625 0)"/>
     <use xlink:href="#DejaVuSans-72" transform="translate(1543.294922 0)"/>
     <use xlink:href="#DejaVuSans-64" transform="translate(1582.658203 0)"/>
     <use xlink:href="#DejaVuSans-43" transform="translate(1646.134766 0)"/>
     <use xlink:href="#DejaVuSans-6f" transform="translate(1715.958984 0)"/>
     <use xlink:href="#DejaVuSans-6e" transform="translate(1777.140625 0)"/>
     <use xlink:href="#DejaVuSans-63" transform="translate(1840.519531 0)"/>
     <use xlink:href="#DejaVuSans-72" transform="translate(1895.5 0)"/>
     <use xlink:href="#DejaVuSans-65" transform="translate(1934.363281 0)"/>
     <use xlink:href="#DejaVuSans-74" transform="translate(1995.886719 0)"/>
     <use xlink:href="#DejaVuSans-65" transform="translate(2035.095703 0)"/>
     <use xlink:href="#DejaVuSans-2c" transform="translate(2096.619141 0)"/>
     <use xlink:href="#DejaVuSans-20" transform="translate(2128.40625 0)"/>
     <use xlink:href="#DejaVuSans-48" transform="translate(2160.193359 0)"/>
     <use xlink:href="#DejaVuSans-61" transform="translate(2235.388672 0)"/>
     <use xlink:href="#DejaVuSans-72" transform="translate(2296.667969 0)"/>
     <use xlink:href="#DejaVuSans-64" transform="translate(2336.03125 0)"/>
     <use xlink:href="#DejaVuSans-43" transform="translate(2399.507812 0)"/>
     <use xlink:href="#DejaVuSans-6f" transform="translate(2469.332031 0)"/>
     <use xlink:href="#DejaVuSans-6e" transform="translate(2530.513672 0)"/>
     <use xlink:href="#DejaVuSans-63" transform="translate(2593.892578 0)"/>
     <use xlink:href="#DejaVuSans-72" transform="translate(2648.873047 0)"/>
     <use xlink:href="#DejaVuSans-65" transform="translate(2687.736328 0)"/>
     <use xlink:href="#DejaVuSans-74" transform="translate(2749.259766 0)"/>
     <use xlink:href="#DejaVuSans-65" transform="translate(2788.46875 0)"/>
     <use xlink:href="#DejaVuSans-20" transform="translate(2849.992188 0)"/>
     <use xlink:href="#DejaVuSans-28" transform="translate(2881.779297 0)"/>
     <use xlink:href="#DejaVuSans-49" transform="translate(2920.792969 0)"/>
     <use xlink:href="#DejaVuSans-49" transform="translate(2950.285156 0)"/>
     <use xlink:href="#DejaVuSans-47" transform="translate(2979.777344 0)"/>
     <use xlink:href="#DejaVuSans-29" transform="translate(3057.267578 0)"/>
     <use xlink:href="#DejaVuSans-2c" transform="translate(3096.28125 0)"/>
     <use xlink:href="#DejaVuSans-20" transform="translate(3128.068359 0)"/>
     <use xlink:href="#DejaVuSans-47" transform="translate(3159.855469 0)"/>
     <use xlink:href="#DejaVuSans-61" transform="translate(3237.345703 0)"/>
     <use xlink:href="#DejaVuSans-74" transform="translate(3298.625 0)"/>
     <use xlink:href="#DejaVuSans-65" transform="translate(3337.833984 0)"/>
     <use xlink:href="#DejaVuSans-64" transform="translate(3399.357422 0)"/>
     <use xlink:href="#DejaVuSans-2c" transform="translate(3462.833984 0)"/>
     <use xlink:href="#DejaVuSans-20" transform="translate(3494.621094 0)"/>
     <use xlink:href="#DejaVuSans-47" transform="translate(3526.408203 0)"/>
     <use xlink:href="#DejaVuSans-61" transform="translate(3603.898438 0)"/>
     <use xlink:href="#DejaVuSans-74" transform="translate(3665.177734 0)"/>
     <use xlink:href="#DejaVuSans-65" transform="translate(3704.386719 0)"/>
     <use xlink:href="#DejaVuSans-64" transform="translate(3765.910156 0)"/>
     <use xlink:href="#DejaVuSans-48" transform="translate(3829.386719 0)"/>
     <use xlink:href="#DejaVuSans-61" transform="translate(3904.582031 0)"/>
     <use xlink:href="#DejaVuSans-72" transform="translate(3965.861328 0)"/>
     <use xlink:href="#DejaVuSans-64" transform="translate(4005.224609 0)"/>
     <use xlink:href="#DejaVuSans-43" transform="translate(4068.701172 0)"/>
     <use xlink:href="#DejaVuSans-6f" transform="translate(4138.525391 0)"/>
     <use xlink:href="#DejaVuSans-6e" transform="translate(4199.707031 0)"/>
     <use xlink:href="#DejaVuSans-63" transform="translate(4263.085938 0)"/>
     <use xlink:href="#DejaVuSans-72" transform="translate(4318.066406 0)"/>
     <use xlink:href="#DejaVuSans-65" transform="translate(4356.929688 0)"/>
     <use xlink:href="#DejaVuSans-74" transform="translate(4418.453125 0)"/>
     <use xlink:href="#DejaVuSans-65" transform="translate(4457.662109 0)"/>
     <use xlink:href="#DejaVuSans-29" transform="translate(4519.185547 0)"/>
    </g>
   </g>
   <g id="legend_1">
    <g id="patch_36">
     <path d="M 718.8 101.956 
L 839.979375 101.956 
Q 842.379375 101.956 842.379375 99.556 
L 842.379375 47.91475 
Q 842.379375 45.51475 839.979375 45.51475 
L 718.8 45.51475 
Q 716.4 45.51475 716.4 47.91475 
L 716.4 99.556 
Q 716.4 101.956 718.8 101.956 
z
" style="fill: #ffffff; opacity: 0.8; stroke: #cccccc; stroke-linejoin: miter"/>
    </g>
    <g id="PathCollection_10">
     <g>
      <use xlink:href="#m3a0aad4b08" x="733.2" y="56.282875" style="fill: #d62728; fill-opacity: 0.7; stroke: #000000; stroke-opacity: 0.7; stroke-width: 0.5"/>
     </g>
    </g>
    <g id="text_46">
     <!-- ReLU -->
     <g transform="translate(754.8 59.432875) scale(0.12 -0.12)">
      <use xlink:href="#DejaVuSans-52"/>
      <use xlink:href="#DejaVuSans-65" transform="translate(64.982422 0)"/>
      <use xlink:href="#DejaVuSans-4c" transform="translate(126.505859 0)"/>
      <use xlink:href="#DejaVuSans-55" transform="translate(177.21875 0)"/>
     </g>
    </g>
    <g id="PathCollection_11">
     <g>
      <use xlink:href="#m08e6200a84" x="733.2" y="73.896625" style="fill: #2ca02c; fill-opacity: 0.7; stroke: #000000; stroke-opacity: 0.7; stroke-width: 0.5"/>
     </g>
    </g>
    <g id="text_47">
     <!-- HardConcrete -->
     <g transform="translate(754.8 77.046625) scale(0.12 -0.12)">
      <use xlink:href="#DejaVuSans-48"/>
      <use xlink:href="#DejaVuSans-61" transform="translate(75.195312 0)"/>
      <use xlink:href="#DejaVuSans-72" transform="translate(136.474609 0)"/>
      <use xlink:href="#DejaVuSans-64" transform="translate(175.837891 0)"/>
      <use xlink:href="#DejaVuSans-43" transform="translate(239.314453 0)"/>
      <use xlink:href="#DejaVuSans-6f" transform="translate(309.138672 0)"/>
      <use xlink:href="#DejaVuSans-6e" transform="translate(370.320312 0)"/>
      <use xlink:href="#DejaVuSans-63" transform="translate(433.699219 0)"/>
      <use xlink:href="#DejaVuSans-72" transform="translate(488.679688 0)"/>
      <use xlink:href="#DejaVuSans-65" transform="translate(527.542969 0)"/>
      <use xlink:href="#DejaVuSans-74" transform="translate(589.066406 0)"/>
      <use xlink:href="#DejaVuSans-65" transform="translate(628.275391 0)"/>
     </g>
    </g>
    <g id="PathCollection_12">
     <g>
      <use xlink:href="#m8553ea04a7" x="733.2" y="91.510375" style="fill: #ff7f0e; fill-opacity: 0.7; stroke: #000000; stroke-opacity: 0.7; stroke-width: 0.5"/>
     </g>
    </g>
    <g id="text_48">
     <!-- Gated -->
     <g transform="translate(754.8 94.660375) scale(0.12 -0.12)">
      <use xlink:href="#DejaVuSans-47"/>
      <use xlink:href="#DejaVuSans-61" transform="translate(77.490234 0)"/>
      <use xlink:href="#DejaVuSans-74" transform="translate(138.769531 0)"/>
      <use xlink:href="#DejaVuSans-65" transform="translate(177.978516 0)"/>
      <use xlink:href="#DejaVuSans-64" transform="translate(239.501953 0)"/>
     </g>
    </g>
   </g>
  </g>
 </g>
 <defs>
  <clipPath id="p45540a2422">
   <rect x="52.079375" y="39.51475" width="796.3" height="487.72"/>
  </clipPath>
 </defs>
</svg>
